<svg id="Warstwa_2" data-name="Warstwa 2" xmlns="http://www.w3.org/2000/svg" viewBox="0 0 1719.4 1123.6"><defs><style>.cls-1{fill:#fff;}</style></defs><title>eyeIcon</title><path class="cls-1" d="M996.5,1286.3c4.21,116.68-90.4,214.81-211.3,219.17s-222.34-86.69-226.55-203.37S649,1087.3,770,1082.93,992.29,1169.62,996.5,1286.3Z" transform="translate(-49.47 -454.7)"/><path d="M891.71,454.7c-345.35-1.32-694.58,312.51-842.24,577.86,175.23,261.63,523.41,562.43,871.29,545C1263.08,1560.45,1631,1226.79,1768.87,997,1621.81,761.09,1237.66,456,891.71,454.7ZM904,1373.63c-195.32,7-359.37-145.58-366.41-340.89s172-381,367.3-388.08,397.38,169.28,404.43,364.6S1099.28,1366.58,904,1373.63Z" transform="translate(-49.47 -454.7)"/><path d="M1149.69,1013.62c4.21,116.68-90.4,214.81-211.3,219.17s-222.34-86.69-226.55-203.37,90.4-214.8,211.31-219.17S1145.48,896.94,1149.69,1013.62Z" transform="translate(-49.47 -454.7)"/></svg>