<svg id="Warstwa_1" data-name="Warstwa 1" xmlns="http://www.w3.org/2000/svg" viewBox="0 0 1788 2249"><title>ikona</title><path d="M8018.5,6360.5H7404.17a80.34,80.34,0,0,0,80.33-80.33v-95.34a80.34,80.34,0,0,0-80.33-80.33H7064.83a80.34,80.34,0,0,0-80.33,80.33v95.34a80.34,80.34,0,0,0,80.33,80.33H6466.5a118,118,0,0,0-118,118h0a118,118,0,0,0,118,118h1552a118,118,0,0,0,118-118h0A118,118,0,0,0,8018.5,6360.5Z" transform="translate(-6348.5 -6104.5)"/><path d="M7914,6737.5H6556a93,93,0,0,0-93,93v1299c0,123.71,100.29,224,224,224H7783c123.71,0,224-100.29,224-224v-1299A93,93,0,0,0,7914,6737.5ZM6935,7935a121,121,0,0,1-242,0V7113.5a121,121,0,1,1,242,0Zm422-1a121,121,0,0,1-242,0V7112.5a121,121,0,1,1,242,0Zm422.5,2a121,121,0,0,1-242,0V7114.5a121,121,0,1,1,242,0Z" transform="translate(-6348.5 -6104.5)"/></svg>