<svg xmlns="http://www.w3.org/2000/svg" xmlns:xlink="http://www.w3.org/1999/xlink" width="200" height="200" viewBox="0 0 200 200">
  <defs>
    <clipPath id="clip-lockIn_1">
      <rect width="200" height="200"/>
    </clipPath>
  </defs>
  <g id="lockIn_1" data-name="lockIn – 1" clip-path="url(#clip-lockIn_1)">
    <g id="Group_2" data-name="Group 2" transform="translate(50 22)">
      <g id="key-body" transform="translate(0 53)">
        <path id="Vector_3" d="M85.095,261.525a13.645,13.645,0,0,0-1.7-.1H16.6a15.244,15.244,0,0,0-11.74,5.941A22.765,22.765,0,0,0,0,281.7v59.433a22.765,22.765,0,0,0,4.863,14.342A15.244,15.244,0,0,0,16.6,361.42H83.4a15.244,15.244,0,0,0,11.74-5.941A22.764,22.764,0,0,0,100,341.137V281.7a23,23,0,0,0-4.277-13.59,15.8,15.8,0,0,0-10.628-6.588Z" transform="translate(0 -261.42)" fill="#ffc107"/>
      </g>
      <g id="key-hole" transform="translate(35.075 78.41)">
        <path id="Vector_4" d="M237.9,383.733a19.99,19.99,0,0,0-2.033-8.856,16.134,16.134,0,0,0-5.533-6.384,12.718,12.718,0,0,0-7.489-2.131,12.974,12.974,0,0,0-7.354,2.717,16.686,16.686,0,0,0-5.167,6.807,20.257,20.257,0,0,0-1.537,9,19.651,19.651,0,0,0,2.521,8.675,15.588,15.588,0,0,0,5.876,5.933l-2.218,19.15a3.252,3.252,0,0,0,.075,1.16,2.93,2.93,0,0,0,.47,1.019,2.383,2.383,0,0,0,.782.7,1.994,1.994,0,0,0,.953.246h12.17a1.992,1.992,0,0,0,.942-.241,2.374,2.374,0,0,0,.777-.68,2.916,2.916,0,0,0,.476-1,3.251,3.251,0,0,0,.091-1.144l-1.9-19.387a15.876,15.876,0,0,0,5.913-6.411,19.936,19.936,0,0,0,2.189-9.166Z" transform="translate(-208.825 -366.763)" fill="#455a64"/>
      </g>
      <g id="key-thing">
        <g id="Component_1_1" data-name="Component 1 – 1" transform="matrix(-1, 0, 0, 1, 80.262, 3.222)">
          <path id="Path_1" data-name="Path 1" d="M457.27,244.987V257.85h-16.8V238.63a15.5,15.5,0,0,0-10.352-12.771l-4.2-.294h-1.1l-2.839.191h0l-.241.075a14.507,14.507,0,0,0-8.635,7.791,16.149,16.149,0,0,0-.948,2.435l-14.889-8.573q.393-.956.845-1.871a32.262,32.262,0,0,1,13.341-14.13v.063c.092-.052.181-.109.277-.161a29.772,29.772,0,0,1,11.144-3.534l6.67.013a29.87,29.87,0,0,1,11.2,3.632,32.3,32.3,0,0,1,13.214,14.145l.917,2.766a34.524,34.524,0,0,1,2.24,7.707Z" transform="translate(-397.27 -207.85)" fill="#455a64"/>
        </g>
      </g>
      <g id="key-closer">
        <rect id="Rectangle_1" data-name="Rectangle 1" width="15" height="31" transform="translate(65 22)" fill="#455a64"/>
      </g>
    </g>
  </g>
</svg>
