<svg id="Warstwa_2" data-name="Warstwa 2" xmlns="http://www.w3.org/2000/svg" viewBox="0 0 286.99 528.8"><defs><style>.cls-1{fill:#ffc107;}.cls-2,.cls-4{fill:none;}.cls-2{stroke:#fff;stroke-miterlimit:10;stroke-width:14px;}.cls-3{fill:#455a64;}</style></defs><title>lock_in</title><path class="cls-1" d="M383.49,328.63a41.24,41.24,0,0,0-4.16-.21H215.82a40.64,40.64,0,0,0-40.64,40.64h0V488.15a40.64,40.64,0,0,0,40.64,40.65H379.33A40.64,40.64,0,0,0,420,488.15V369.06A40.64,40.64,0,0,0,383.49,328.63Z" transform="translate(-175.18 0)"/><path class="cls-2" d="M337.64-123.91" transform="translate(-175.18 0)"/><path class="cls-2" d="M252.85-105.74" transform="translate(-175.18 0)"/><path class="cls-2" d="M463.43,350.31" transform="translate(-175.18 0)"/><path class="cls-2" d="M310.25-126.61" transform="translate(-175.18 0)"/><path class="cls-2" d="M250.24-113.57" transform="translate(-175.18 0)"/><path class="cls-3" d="M332.39,407.26a35.68,35.68,0,1,0-50.71,32.34l-5.43,39.31a5.64,5.64,0,0,0,4.81,6.36,6.49,6.49,0,0,0,.77.05h29.79a5.64,5.64,0,0,0,5.63-5.64,4.73,4.73,0,0,0,0-.65l-4.66-39.8A35.66,35.66,0,0,0,332.39,407.26Z" transform="translate(-175.18 0)"/><polygon class="cls-3" points="286.82 0 286.82 1.24 194.14 1.05 194.14 0 286.82 0"/><polygon class="cls-3" points="286.89 1.24 286.82 28.27 286.82 1.24 286.89 1.24"/><path class="cls-3" d="M209.23,169.41a76.33,76.33,0,0,1,2.59-17,84.15,84.15,0,0,0-2.59,20.84v1.54c0-.88,0-1.78,0-2.67S209.2,170.32,209.23,169.41Z" transform="translate(-175.18 0)"/><path class="cls-3" d="M365,287.48H327a33.82,33.82,0,0,0-23.43-27l-9.52-.63h-2.49l-6.45.41-.54.16A32.36,32.36,0,0,0,265,277.15a33.54,33.54,0,0,0-2.37,6c-.06.19-.12.38-.17.57s-.09.36-.14.55a31.18,31.18,0,0,0-1.06,7v37.82H223.12V292.33a70.77,70.77,0,0,1,38.12-62.84v.14c.21-.12.41-.24.63-.35a70.37,70.37,0,0,1,25.28-7.61l15.14,0A71,71,0,0,1,357.7,260l2.08,6a71.31,71.31,0,0,1,5.08,16.58Z" transform="translate(-175.18 0)"/><line class="cls-4" x1="285.99" y1="149.71" x2="285.8" y2="138.81"/><line class="cls-4" x1="286.99" y1="205.79" x2="286.82" y2="196.22"/></svg>