<svg id="Warstwa_2" data-name="Warstwa 2" xmlns="http://www.w3.org/2000/svg" viewBox="0 0 595.15 748.57"><defs><style>.cls-1{fill:#ffc107;}.cls-2{fill:none;stroke:#fff;stroke-miterlimit:10;stroke-width:14px;}.cls-3{fill:#455a64;}</style></defs><title>lock_in</title><path class="cls-1" d="M772.72,467.84a99.13,99.13,0,0,0-10.1-.51H365.09a98.81,98.81,0,0,0-98.81,98.81V855.67a98.81,98.81,0,0,0,98.81,98.81H762.62a98.81,98.81,0,0,0,98.81-98.81V566.14A98.82,98.82,0,0,0,772.72,467.84Z" transform="translate(-266.28 -205.91)"/><path class="cls-2" d="M603.92,82" transform="translate(-266.28 -205.91)"/><path class="cls-2" d="M519.13,100.17" transform="translate(-266.28 -205.91)"/><path class="cls-2" d="M729.71,556.22" transform="translate(-266.28 -205.91)"/><path class="cls-2" d="M576.53,79.3" transform="translate(-266.28 -205.91)"/><path class="cls-2" d="M516.52,92.34" transform="translate(-266.28 -205.91)"/><path class="cls-3" d="M648.49,659A86.73,86.73,0,1,0,525.2,737.64L512,833.21a13.7,13.7,0,0,0,13.57,15.57H598a13.7,13.7,0,0,0,13.6-15.29l-11.33-96.75A86.73,86.73,0,0,0,648.49,659Z" transform="translate(-266.28 -205.91)"/><polygon class="cls-3" points="462 0 462 1.24 369.32 1.05 369.32 0 462 0"/><polygon class="cls-3" points="462.07 1.24 462 28.27 462 1.24 462.07 1.24"/><path class="cls-3" d="M475.51,375.32a76.7,76.7,0,0,1,2.59-17,84.62,84.62,0,0,0-2.59,20.84v1.54c0-.88-.05-1.78-.05-2.67S475.48,376.23,475.51,375.32Z" transform="translate(-266.28 -205.91)"/><path class="cls-3" d="M728.28,402.13v67.29H635.6V368.87a82.19,82.19,0,0,0-57.11-66.81l-23.15-1.54h-6.07l-15.66,1h0l-1.33.39a78.7,78.7,0,0,0-47.64,40.76,81.7,81.7,0,0,0-5.77,14.54c-.14.47-.28.93-.4,1.4s-.24.88-.35,1.33a76.7,76.7,0,0,0-2.59,17v91.95H382.83V379.59a172.11,172.11,0,0,1,92.68-152.78v.33c.51-.27,1-.57,1.53-.84a170.68,170.68,0,0,1,61.48-18.49l36.8.07a171.15,171.15,0,0,1,61.81,19,173,173,0,0,1,72.9,74l5.06,14.47a173.57,173.57,0,0,1,12.36,40.32Z" transform="translate(-266.28 -205.91)"/><line class="cls-3" x1="461.17" y1="149.71" x2="460.98" y2="138.81"/><line class="cls-3" x1="462.17" y1="205.79" x2="462" y2="196.22"/></svg>