<svg width="596" height="749" viewBox="0 0 596 749" fill="none" xmlns="http://www.w3.org/2000/svg">
<g id="lock_in_anim" clip-path="url(#clip0)">
<g id="lock-upper-thing">
<path id="Vector" d="M462 196.22V263.51H369.32V162.96C367.1 147.56 360.555 133.107 350.446 121.28C340.336 109.453 327.077 100.739 312.21 96.1501L289.06 94.6101H282.99L267.33 95.6101L266 96.0001C255.69 99.1671 246.141 104.419 237.946 111.431C229.751 118.443 223.084 127.064 218.36 136.76C215.976 141.411 214.044 146.28 212.59 151.3C212.45 151.77 212.31 152.23 212.19 152.7C212.07 153.17 211.95 153.58 211.84 154.03C210.342 159.582 209.473 165.284 209.25 171.03V262.98H116.55V173.68C116.533 142.17 125.166 111.26 141.509 84.3196C157.851 57.3791 181.276 35.4421 209.23 20.9001V21.2301C209.74 20.9601 210.23 20.6601 210.76 20.3901C229.899 10.3933 250.762 4.11901 272.24 1.90009L309.04 1.97009C330.663 4.31833 351.641 10.7667 370.85 20.9701C402.157 37.5867 427.604 63.4182 443.75 94.9701L448.81 109.44C454.553 122.328 458.704 135.868 461.17 149.76L462 196.22Z" fill="#455A64"/>
<path id="Vector_2" d="M209.23 169.41C209.453 163.664 210.322 157.962 211.82 152.41C210.095 159.222 209.225 166.223 209.23 173.25V174.79C209.23 173.91 209.18 173.01 209.18 172.12C209.18 171.23 209.2 170.32 209.23 169.41Z" fill="#455A64"/>
</g>
<g id="key-body">
<path id="Vector_3" d="M506.44 261.93C503.084 261.588 499.713 261.418 496.34 261.42H98.81C72.604 261.42 47.4712 271.83 28.9408 290.361C10.4103 308.891 0 334.024 0 360.23V649.76C0 675.966 10.4103 701.099 28.9408 719.629C47.4712 738.16 72.604 748.57 98.81 748.57H496.34C522.546 748.57 547.679 738.16 566.209 719.629C584.74 701.099 595.15 675.966 595.15 649.76V360.23C595.15 335.772 586.079 312.183 569.693 294.025C553.307 275.868 530.77 264.432 506.44 261.93V261.93Z" fill="#FFC107"/>
</g>
<g id="key-hole">
<path id="Vector_4" d="M382.21 453.09C382.211 437.54 378.032 422.276 370.11 408.895C362.187 395.515 350.813 384.51 337.179 377.034C323.544 369.558 308.15 365.885 292.608 366.4C277.067 366.915 261.95 371.598 248.84 379.961C235.73 388.323 225.109 400.056 218.089 413.931C211.07 427.807 207.91 443.314 208.941 458.83C209.971 474.346 215.154 489.299 223.947 502.124C232.74 514.95 244.819 525.175 258.92 531.73L245.72 627.3C245.453 629.239 245.604 631.212 246.164 633.087C246.723 634.962 247.678 636.696 248.964 638.171C250.25 639.647 251.836 640.829 253.618 641.64C255.399 642.45 257.333 642.87 259.29 642.87H331.72C333.653 642.869 335.563 642.459 337.326 641.667C339.089 640.875 340.665 639.719 341.949 638.275C343.234 636.831 344.198 635.132 344.779 633.288C345.36 631.445 345.544 629.5 345.32 627.58L333.99 530.83C348.473 523.653 360.663 512.571 369.183 498.835C377.703 485.098 382.215 469.254 382.21 453.09V453.09Z" fill="#455A64"/>
</g>
</g>
<defs>
<clipPath id="clip0">
<rect width="595.15" height="748.57" fill="white"/>
</clipPath>
</defs>
</svg>
