<svg xmlns="http://www.w3.org/2000/svg" viewBox="0 0 2434.24 1323.43"><defs><style>.cls-1,.cls-2,.cls-3,.cls-4{fill:none;stroke-miterlimit:10;}.cls-1,.cls-3{stroke:#fbecb2;}.cls-1,.cls-2{stroke-width:14px;}.cls-2,.cls-4{stroke:#fff;}.cls-3{stroke-width:6px;}.cls-4{stroke-width:33px;}</style></defs><title>Logo_2x1</title><g id="Warstwa_3" data-name="Warstwa 3"><path class="cls-1" d="M7057,7152.21" transform="translate(-5848.88 -6487.56)"/><path class="cls-2" d="M6479.88,6643.07" transform="translate(-5848.88 -6487.56)"/><path class="cls-1" d="M5902.78,7152.21" transform="translate(-5848.88 -6487.56)"/><path class="cls-2" d="M6479.88,7661.36" transform="translate(-5848.88 -6487.56)"/><path class="cls-2" d="M6443.09,7577.21a468.33,468.33,0,0,1-48.83,21.43c-1.77.65-3.57,1.3-5.39,1.93-16.69,5.85-34.52,10.69-51.2,12.46a140.93,140.93,0,0,1-20,.72h-.08a142.11,142.11,0,0,1-18.64-1.93h0c-1.17-.19-2.35-.41-3.51-.64,1.9,0,3.82,0,5.76-.13h0a465.73,465.73,0,0,0,69.38-31.38c3.5,3.17,7.48,6.59,11.94,10.16a470.66,470.66,0,0,0,48.06-23.2C6434.25,7569.93,6438.42,7573.5,6443.09,7577.21Z" transform="translate(-5848.88 -6487.56)"/><path class="cls-2" d="M6982.86,7253v0a539.67,539.67,0,0,1-36.23,101.14c-11.6,24.41-35.12,72.62-78.33,122.79l0,0a462.12,462.12,0,0,1-84,76.36h0c-2.39,1.7-4.8,3.36-7.24,5-41.56,28.1-101.5,68.68-174.07,69.28a191.49,191.49,0,0,1-21.12-1h0c-4.3-.42-8.63-1-13-1.74,6.59.17,13.08,0,19.46-.46h0c40.36-14.43,74.64-37.64,101.34-55.71,104.76-70.89,151.54-166.28,169.57-204.2,61.43-129.28,56.17-249.95,47.4-313.59-4.23-30.66-7.94-57.6-14.4-82.64a219.57,219.57,0,0,0-18.39-30.07c-70.23-96.79-212.21-138.2-326.39-120.94h0c-22.88,8.91-43.37,20.89-60.28,36a168.62,168.62,0,0,0-21.88,23.71c-7.32-5.44-16-11.53-26.1-17.84q-6.29,4.67-12,9.79a169.46,169.46,0,0,0-21.88,23.7,390.48,390.48,0,0,0-98.3-53.28c-4.79-1.75-9.69-3.45-14.74-5.06-9.17-3-21.11-6.79-35.26-10.43-32.28-8.3-76-15.6-124.35-8.9-1.55.58-3.1,1.21-4.64,1.85-90.23,37.41-131.93,113.7-149.5,145.86a352.12,352.12,0,0,0-31,77,356.56,356.56,0,0,1,40.1-121.29,454.85,454.85,0,0,1,27.28-44.88s0,0,0,0c5.21-7.44,11.07-15.2,17.66-23,24.08-28.71,57.8-58.52,104.53-77.9l3.79-1.54h0c7.83-3.11,15.62-5.75,23.32-8h0l2.52-.72a276.5,276.5,0,0,1,89.87-9.43h0a356.9,356.9,0,0,1,69.45,11.07c14.14,3.64,26.09,7.49,35.26,10.43q7.56,2.43,14.73,5.07,9,3.32,17.46,6.89h0c1,.41,1.94.83,2.91,1.26,6.28,2.7,12.27,5.5,18,8.35q7.77,3.85,14.89,7.79c2.71,1.48,5.34,3,7.89,4.47,5.42,3.14,10.5,6.27,15.26,9.32l3.15,2.06,0,0c5.76,3.78,11,7.44,15.72,10.89,1,.74,2,1.48,3,2.21a169.25,169.25,0,0,1,21.88-23.71c17.09-15.26,37.84-27.34,61-36.28h0a257.94,257.94,0,0,1,27.24-8.79h0c33.19-8.79,69.91-12,107.29-9.68,95.78,5.84,195.75,47.73,251.11,124.05,35.39,48.8,42.07,97.22,51,162.26C7000.46,7087.13,7005,7164.27,6982.86,7253Z" transform="translate(-5848.88 -6487.56)"/><path class="cls-2" d="M6479.88,6823.58c0-55.67,4.35-108.06,12-153.89C6509.09,6567,6543,6497.22,6582,6497.22" transform="translate(-5848.88 -6487.56)"/><path class="cls-2" d="M6690.45,7099.12" transform="translate(-5848.88 -6487.56)"/><path class="cls-1" d="M5966.68,6943.35" transform="translate(-5848.88 -6487.56)"/><path class="cls-1" d="M5946.84,7620.39" transform="translate(-5848.88 -6487.56)"/><path class="cls-1" d="M7032.19,7183.48" transform="translate(-5848.88 -6487.56)"/><path class="cls-2" d="M6455.1,6674.33" transform="translate(-5848.88 -6487.56)"/><path class="cls-1" d="M5878,7183.48" transform="translate(-5848.88 -6487.56)"/><path class="cls-2" d="M6455.1,7692.62" transform="translate(-5848.88 -6487.56)"/><path class="cls-2" d="M6971.29,7088.45c-.64-5.9-1.33-11.47-2-16.64-9-65.05-15.65-113.47-51.06-162.28a251.82,251.82,0,0,0-35.85-39.57c-40.46-36.3-92.56-61.15-147.1-74.26,0,0,0,0,0,0-12.83-3.1-25.81-5.53-38.8-7.32-85.42-11.71-171.47,4.91-223.89,51-.34.28-.68.59-1,.88-.14.13-.28.24-.41.37a167.22,167.22,0,0,0-21.47,23.34c-2.67-2-5.5-4.05-8.54-6.18-8.41-5.92-18.22-12.33-29.41-18.79q-3.84-2.25-7.89-4.45-3.26-1.8-6.67-3.56c-.65-.35-1.3-.69-2-1l-2.66-1.37a387.27,387.27,0,0,0-41.18-17.91c-4.79-1.76-9.69-3.44-14.74-5.07-8.45-2.72-19.27-6.19-32-9.58h0l-3.24-.84a373.35,373.35,0,0,0-44.38-8.72c-33.63-4.47-73.26-4.59-114.95,7.06a258.55,258.55,0,0,0-29.66,10.26,261.73,261.73,0,0,0-63.34,37.48,286.42,286.42,0,0,0-34.07,32.2s0,0,0,0c-26.59,29.54-42.74,59.07-52.06,76.15-47.17,86.28-45.32,167.51-43.76,211.49,0,.74.05,1.47.09,2.2v0c4.43,110.49,47.21,189.27,74.66,238.44,20.28,36.34,60.89,107.28,134.8,166,0,0,.06.07.09.07a429.66,429.66,0,0,0,56.54,38.1c10.45,5.87,20.87,11.7,31.47,17,6.54,3.25,13.13,6.31,19.84,9,23.45,9.57,48.25,15.25,76.33,12.26,33-3.52,70.59-19.07,94.82-30.64,2-1,4-1.9,5.8-2.8,12.12-6,19.71-10.32,19.71-10.32,4.43,4,9.65,8.46,15.63,13.06l.17.12a231.59,231.59,0,0,0,34.19,21.86h0a212.82,212.82,0,0,0,22,9.92,201.49,201.49,0,0,0,33.73,9.72c67.08,13.12,125.33-11.27,170.85-38.22,15.74-9.32,29.94-18.93,42.47-27.41a468.7,468.7,0,0,0,116-112.65l0,0c27.82-38.18,44.39-72.27,53.55-91.52C6978.28,7266.64,6978.43,7155.15,6971.29,7088.45Zm-528.2,488.76c-4.67-3.71-8.84-7.28-12.48-10.58a470.66,470.66,0,0,1-48.06,23.2c-4.46-3.57-8.44-7-11.94-10.16a465.73,465.73,0,0,1-69.38,31.38h0c-1.94.09-3.86.13-5.76.13-30.65-5.92-58-21-85.4-36.43-110.72-62.35-166.48-159.47-191.43-204.2-27.63-49.51-70.81-129-74.76-240.67-.78-22-1.64-53.42,3.64-90.12,0,0,0,0,0,0h0s0,0,0-.05a352.12,352.12,0,0,1,31-77c17.57-32.16,59.27-108.45,149.5-145.86,1.54-.64,3.09-1.27,4.64-1.85,48.33-6.7,92.07.6,124.35,8.9,14.15,3.64,26.09,7.48,35.26,10.43,5.05,1.61,10,3.31,14.74,5.06a390.48,390.48,0,0,1,98.3,53.28,169.46,169.46,0,0,1,21.88-23.7q5.74-5.13,12-9.79c10.07,6.31,18.78,12.4,26.1,17.84a168.62,168.62,0,0,1,21.88-23.71c16.91-15.11,37.4-27.09,60.28-36h0c114.18-17.26,256.16,24.15,326.39,120.94a219.57,219.57,0,0,1,18.39,30.07c6.46,25,10.17,52,14.4,82.64,8.77,63.64,14,184.31-47.4,313.59-18,37.92-64.81,133.31-169.57,204.2-26.7,18.07-61,41.28-101.34,55.71h0c-6.38.46-12.87.63-19.46.46a196.43,196.43,0,0,1-32.48-3.59C6495.49,7613.33,6464.1,7593.91,6443.09,7577.21Z" transform="translate(-5848.88 -6487.56)"/><path class="cls-2" d="M6455.1,6854.84c0-55.67,4.34-108.06,12-153.89,17.18-102.69,51.06-172.47,90.08-172.47" transform="translate(-5848.88 -6487.56)"/><path class="cls-2" d="M6665.67,7130.38" transform="translate(-5848.88 -6487.56)"/><path class="cls-1" d="M5941.89,6974.61" transform="translate(-5848.88 -6487.56)"/><path class="cls-1" d="M5922.05,7651.65" transform="translate(-5848.88 -6487.56)"/><path class="cls-1" d="M6972.19,7170.43" transform="translate(-5848.88 -6487.56)"/><path class="cls-2" d="M6395.09,6661.29" transform="translate(-5848.88 -6487.56)"/><path class="cls-3" d="M5818,7170.43" transform="translate(-5848.88 -6487.56)"/><path class="cls-2" d="M6395.09,7679.57" transform="translate(-5848.88 -6487.56)"/><path class="cls-2" d="M6909.24,7058.75c-4.55-32.94-8.49-61.62-15.9-88.26-1.6-5.77-3.37-11.47-5.34-17.06a.51.51,0,0,0,0-.1,218.6,218.6,0,0,0-29.77-56.84c-27.72-38.2-66.62-67.78-110.59-88.53a367.54,367.54,0,0,0-51.19-19.58c-45.62-13.73-93.87-19-139.08-15.68h0a318,318,0,0,0-50.26,7.62h0a271.11,271.11,0,0,0-26.56,7.69c-2.3.81-4.59,1.62-6.84,2.49q-8.73,3.32-17,7.23c-1.32.63-2.64,1.27-3.93,1.92q-8,4-15.46,8.53-5.72,3.51-11.11,7.36a167.17,167.17,0,0,0-13.84,11c-.27.22-.53.46-.79.69-2.8,2.49-5.38,5-7.72,7.33-1.12,1.15-2.2,2.28-3.22,3.36a166.21,166.21,0,0,0-10.94,13,392.66,392.66,0,0,0-72.12-42.53c-8.25-3.74-17-7.36-26.2-10.74-4.77-1.75-9.69-3.45-14.73-5.06-5.57-1.79-12.15-3.91-19.64-6.1q-7.26-2.18-15.63-4.33c-26.85-6.91-61.63-13.12-100.39-11.15h0a270.93,270.93,0,0,0-48.49,6.82q-5.19,1.21-10.43,2.68a257.16,257.16,0,0,0-29.65,10.26c-90.24,37.41-131.93,113.7-149.51,145.85-47.15,86.29-45.31,167.52-43.76,211.5a456.47,456.47,0,0,0,22.29,125.72c.1.31.22.61.32.92,4.69,14.43,9.87,28,15.25,40.58,12.46,29.32,25.89,53.74,36.89,73.44,25,44.74,80.72,141.85,191.45,204.21,31.09,17.51,62,34.5,97.82,38.29,4.42.47,8.91.74,13.48.78a139.87,139.87,0,0,0,16.32-.79c21.29-2.26,44.46-9.53,64.73-17.5h.08c7.26-2.85,14.05-5.79,20.33-8.62,0,0,0,0,0,0,20.81-9.38,35.16-17.61,35.16-17.61,1.5,1.35,3.09,2.76,4.77,4.19q4.94,4.28,10.89,8.88c5.61,4.31,11.89,8.76,18.84,13.09a220.16,220.16,0,0,0,19.81,11.06,204.66,204.66,0,0,0,51.44,17.47q5.88,1.16,11.67,1.93,7.38,1,14.6,1.39c35.66,2.07,68.46-5.83,97.77-17.89,6.26-2.57,12.36-5.33,18.28-8.21l0,0c27.39-13.34,51.23-29.49,71-42.84,104.76-70.88,151.55-166.27,169.57-204.19C6923.28,7243.07,6918,7122.41,6909.24,7058.75Zm-474.83,562.53a213.08,213.08,0,0,1-20.9-10.42c12.12-6,19.71-10.32,19.71-10.32,4.43,4,9.65,8.46,15.63,13.06l.17.12A245.39,245.39,0,0,0,6474.6,7634,202.24,202.24,0,0,1,6434.41,7621.28Zm424.83-256.75c-18,37.92-64.81,133.31-169.57,204.2-26.7,18.07-61,41.28-101.34,55.71h0c-6.38.46-12.87.63-19.46.46a196.43,196.43,0,0,1-32.48-3.59c-40.87-8-72.26-27.41-93.27-44.11-4.67-3.71-8.84-7.28-12.48-10.58a470.66,470.66,0,0,1-48.06,23.2c-4.46-3.57-8.44-7-11.94-10.16a465.73,465.73,0,0,1-69.38,31.38h0c-1.94.09-3.86.13-5.76.13-30.65-5.92-58-21-85.4-36.43-110.72-62.35-166.48-159.47-191.43-204.2-27.63-49.51-70.81-129-74.76-240.67-.78-22-1.64-53.42,3.64-90.12,0,0,0,0,0,0h0s0,0,0-.05a352.12,352.12,0,0,1,31-77c17.57-32.16,59.27-108.45,149.5-145.86,1.54-.64,3.09-1.27,4.64-1.85,48.33-6.7,92.07.6,124.35,8.9,14.15,3.64,26.09,7.48,35.26,10.43,5.05,1.61,10,3.31,14.74,5.06a390.48,390.48,0,0,1,98.3,53.28,169.46,169.46,0,0,1,21.88-23.7q5.74-5.13,12-9.79c10.07,6.31,18.78,12.4,26.1,17.84a168.62,168.62,0,0,1,21.88-23.71c16.91-15.11,37.4-27.09,60.28-36h0c114.18-17.26,256.16,24.15,326.39,120.94a219.57,219.57,0,0,1,18.39,30.07c6.46,25,10.17,52,14.4,82.64C6915.41,7114.58,6920.67,7235.25,6859.24,7364.53Z" transform="translate(-5848.88 -6487.56)"/><path class="cls-2" d="M6395.09,6841.79c0-55.66,4.35-108.05,12-153.88,17.19-102.69,51.06-172.48,90.08-172.48" transform="translate(-5848.88 -6487.56)"/><path class="cls-2" d="M6605.67,7117.34" transform="translate(-5848.88 -6487.56)"/><path class="cls-1" d="M5881.89,6961.57" transform="translate(-5848.88 -6487.56)"/><path class="cls-1" d="M5862.05,7638.6" transform="translate(-5848.88 -6487.56)"/><path class="cls-1" d="M7029.58,7149.56" transform="translate(-5848.88 -6487.56)"/><path class="cls-2" d="M6452.49,6640.42" transform="translate(-5848.88 -6487.56)"/><path class="cls-1" d="M5875.39,7149.56" transform="translate(-5848.88 -6487.56)"/><path class="cls-2" d="M6452.49,7658.7" transform="translate(-5848.88 -6487.56)"/><path class="cls-2" d="M6382.55,7589.83c-1.49.62-3,1.25-4.57,1.86a331.57,331.57,0,0,1-39.93,13.42s0,0,0,0a193.57,193.57,0,0,1-27.75,5.25c-3.05.33-6.07.55-9,.67a465.73,465.73,0,0,0,69.38-31.38C6374.11,7582.84,6378.09,7586.26,6382.55,7589.83Z" transform="translate(-5848.88 -6487.56)"/><path class="cls-2" d="M6919.23,7351.49c-10.18,21.42-29.53,61.17-63.33,104.49a465.26,465.26,0,0,1-106.23,99.7c-32.47,22-76.17,51.55-128.35,63.71l0,0a211.33,211.33,0,0,1-32.95,5c40.36-14.43,74.64-37.64,101.34-55.71,104.76-70.89,151.54-166.28,169.57-204.2,61.43-129.28,56.17-249.95,47.4-313.59-4.23-30.66-7.94-57.6-14.4-82.64a219.57,219.57,0,0,0-18.39-30.07c-70.23-96.79-212.21-138.2-326.39-120.94h0c-22.88,8.91-43.37,20.89-60.28,36a168.62,168.62,0,0,0-21.88,23.71c-7.32-5.44-16-11.53-26.1-17.84q-6.29,4.67-12,9.79a169.46,169.46,0,0,0-21.88,23.7,390.48,390.48,0,0,0-98.3-53.28c-4.79-1.75-9.69-3.45-14.74-5.06-9.17-3-21.11-6.79-35.26-10.43-32.28-8.3-76-15.6-124.35-8.9-1.55.58-3.1,1.21-4.64,1.85-90.23,37.41-131.93,113.7-149.5,145.86a352.12,352.12,0,0,0-31,77s0,0,0,.05h0s0,0,0,0c-5.28,36.7-4.42,68.08-3.64,90.12,3.95,111.66,47.13,191.16,74.76,240.67,25,44.73,80.71,141.85,191.43,204.2,27.44,15.46,54.75,30.51,85.4,36.43-42.34,0-77.45-19.18-112.79-39.08-110.72-62.36-166.47-159.47-191.44-204.21-9.91-17.77-21.83-39.38-33.22-65a.43.43,0,0,0,0-.05c-16.81-37.77-32.46-84.16-38.82-139.51v0q-2-17.46-2.71-36.11c-1.54-44-3.4-125.21,43.76-211.5.74-1.37,1.53-2.8,2.36-4.32h0c17.52-31.86,55-96,129.82-133.59q8.33-4.22,17.3-7.93c5.05-2.1,10.07-4,15.06-5.71s9.76-3.2,14.6-4.55c42.65-11.93,83.15-11.52,117.27-6.77h0a379.55,379.55,0,0,1,42.05,8.42c14.15,3.64,26.09,7.48,35.27,10.42q7.56,2.43,14.73,5.07a386.5,386.5,0,0,1,44.45,19.58l2.85,1.49c6.18,3.27,12,6.57,17.5,9.85q2.82,1.66,5.52,3.34c2.45,1.52,4.81,3,7.11,4.52,7.88,5.11,14.86,10,20.87,14.49,2-2.56,4.84-6.22,8.65-10.47l0,0a163.73,163.73,0,0,1,13.2-13.2c1.28-1.14,2.57-2.26,3.89-3.37,2.41-2,4.89-4,7.43-5.88a193.08,193.08,0,0,1,26.83-16.77h0a234.2,234.2,0,0,1,33.61-14.14h0c45.09-15.07,98.21-19,151.18-12,87,11.48,173.61,52.34,223.71,121.39,17.52,24.17,28,48.2,35.21,74.23,0,0,0,0,0,0,7.35,26.55,11.3,55.16,15.82,88,2,14.21,3.74,31.23,4.65,50.57C6974.45,7155.79,6967,7251,6919.23,7351.49Z" transform="translate(-5848.88 -6487.56)"/><path class="cls-2" d="M6452.49,6820.92c0-55.66,4.35-108.05,12-153.88,17.19-102.7,51.06-172.48,90.08-172.48" transform="translate(-5848.88 -6487.56)"/><path class="cls-2" d="M6663.06,7096.46" transform="translate(-5848.88 -6487.56)"/><path class="cls-1" d="M5939.28,6940.7" transform="translate(-5848.88 -6487.56)"/><path class="cls-1" d="M5919.44,7617.73" transform="translate(-5848.88 -6487.56)"/><path class="cls-1" d="M6987.84,7212.17" transform="translate(-5848.88 -6487.56)"/><path class="cls-2" d="M6410.74,6703" transform="translate(-5848.88 -6487.56)"/><path class="cls-3" d="M5833.65,7212.17" transform="translate(-5848.88 -6487.56)"/><path class="cls-2" d="M6410.74,7721.32" transform="translate(-5848.88 -6487.56)"/><path class="cls-2" d="M6472.52,6839.37c-.47.22-1,.44-1.41.67q-8.26,4-16,8.55c-4.85,2.88-9.54,5.94-14,9.19l-1.91,1.38c10.07,6.31,18.78,12.4,26.1,17.84a168.62,168.62,0,0,1,21.88-23.71c16.91-15.11,37.4-27.09,60.28-36C6520.48,6821.36,6495.08,6828.71,6472.52,6839.37Zm452.38,261.12c-7-50.75-12.61-91.4-31.56-130l-1.1-2.19c6.46,25,10.17,52,14.4,82.64,8.77,63.64,14,184.31-47.4,313.59-18,37.92-64.81,133.31-169.57,204.2-26.7,18.07-61,41.28-101.34,55.71h0c-6.38.46-12.87.63-19.46.46a196.43,196.43,0,0,1-32.48-3.59c-40.87-8-72.26-27.41-93.27-44.11-4.67-3.71-8.84-7.28-12.48-10.58a470.66,470.66,0,0,1-48.06,23.2c-4.46-3.57-8.44-7-11.94-10.16a465.73,465.73,0,0,1-69.38,31.38h0c-1.94.09-3.86.13-5.76.13-30.65-5.92-58-21-85.4-36.43-110.72-62.35-166.48-159.47-191.43-204.2-27.63-49.51-70.81-129-74.76-240.67-.78-22-1.64-53.42,3.64-90.12,0,0,0,0,0,0h0s0,0,0-.05a352.12,352.12,0,0,1,31-77c17.57-32.16,59.27-108.45,149.5-145.86,1.54-.64,3.09-1.27,4.64-1.85a264.46,264.46,0,0,0-35,7.25,259.28,259.28,0,0,0-29.66,10.26q-9.86,4.1-19,8.78c-5.68,2.9-11.15,6-16.41,9.16a280.67,280.67,0,0,0-70,61h0c-21.91,26.34-35.73,51.63-44.1,66.93-47.16,86.29-45.3,167.52-43.76,211.5a455.56,455.56,0,0,0,20.17,119,.24.24,0,0,1,0,.08c.66,2.16,1.32,4.29,2,6.4,15.74,48.53,36.7,86.8,52.55,115.18,25,44.74,80.71,141.87,191.43,204.21,39.38,22.17,78.49,43.53,127.63,38.29,19.63-2.09,40.87-8.43,59.95-15.66-39.91,4.24-73.2-9.05-105.4-26.08,4.42.47,8.91.74,13.48.78,23.45,9.57,48.25,15.25,76.33,12.26,33-3.52,70.59-19.07,94.82-30.64a220.16,220.16,0,0,0,19.81,11.06,204.66,204.66,0,0,0,51.44,17.47q5.88,1.16,11.67,1.93a208.37,208.37,0,0,0,64,24.16,197.1,197.1,0,0,0,61.14,2.26c36.39-14.5,67.52-35.56,92.17-52.24l1.88-1.29a458.34,458.34,0,0,0,74.5-63.69h0A500.44,500.44,0,0,0,6855.9,7456c9.71-17.1,16.71-31.6,21.59-41.88C6938.94,7284.82,6933.67,7164.15,6924.9,7100.49Zm-490.49,520.79a213.08,213.08,0,0,1-20.9-10.42c12.12-6,19.71-10.32,19.71-10.32,4.43,4,9.65,8.46,15.63,13.06l.17.12A245.39,245.39,0,0,0,6474.6,7634,202.24,202.24,0,0,1,6434.41,7621.28Z" transform="translate(-5848.88 -6487.56)"/><path class="cls-2" d="M6410.74,6883.54c0-55.67,4.35-108.06,12-153.89,17.19-102.69,51.07-172.47,90.09-172.47" transform="translate(-5848.88 -6487.56)"/><path class="cls-2" d="M6621.32,7159.08" transform="translate(-5848.88 -6487.56)"/><path class="cls-1" d="M5897.54,7003.31" transform="translate(-5848.88 -6487.56)"/><path class="cls-1" d="M5877.7,7680.35" transform="translate(-5848.88 -6487.56)"/><path class="cls-1" d="M7047.85,7196.52" transform="translate(-5848.88 -6487.56)"/><path class="cls-2" d="M6470.75,6687.38" transform="translate(-5848.88 -6487.56)"/><path class="cls-1" d="M5893.65,7196.52" transform="translate(-5848.88 -6487.56)"/><path class="cls-2" d="M6470.75,7705.66" transform="translate(-5848.88 -6487.56)"/><path class="cls-2" d="M6427.52,7624.72c-8.06,3.93-17.94,8.49-28.85,12.95-3.6-2.95-6.87-5.78-9.8-8.43a470.87,470.87,0,0,1-60.39,28.1c-39.91,4.24-73.2-9.05-105.4-26.08,4.42.47,8.91.74,13.48.78,23.45,9.57,48.25,15.25,76.33,12.26,33-3.52,70.59-19.07,94.82-30.64A220.16,220.16,0,0,0,6427.52,7624.72Z" transform="translate(-5848.88 -6487.56)"/><path class="cls-2" d="M6398.67,7637.67c-21.48,8.79-46.93,17.19-70.14,19.67h-.05a470.87,470.87,0,0,0,60.39-28.1C6391.8,7631.89,6395.07,7634.72,6398.67,7637.67Z" transform="translate(-5848.88 -6487.56)"/><path class="cls-2" d="M6411.51,6843.36c-3.54-1.84-7.18-3.67-10.94-5.46-1.79-.85-3.61-1.71-5.45-2.55-.45-.22-.9-.42-1.34-.62-8.43-3.84-17.37-7.54-26.81-11q-7.17-2.64-14.73-5.07l-5-1.59c-8.24-2.63-18.25-5.72-29.72-8.69l-.53-.14c-39.92-10.28-97.36-19-159.34-1.65a258.93,258.93,0,0,0-25,8.4c48.33-6.7,92.07.6,124.35,8.9,14.15,3.64,26.09,7.48,35.26,10.43,5.05,1.61,10,3.31,14.74,5.06a390.48,390.48,0,0,1,98.3,53.28,169.46,169.46,0,0,1,21.88-23.7q5.74-5.13,12-9.79C6430.88,6854,6421.65,6848.61,6411.51,6843.36Zm573.4,241.49c-7.31-52.94-13.1-94.89-34.09-135,0,0,0,0,0,0a220.14,220.14,0,0,0-16.95-27.27,259.63,259.63,0,0,0-51.51-52.62c-32.16-24.89-70.15-43.41-110.15-55.46h0q-12.19-3.67-24.58-6.54c-69.39-16.05-142.4-13.15-200.14,9.33,114.18-17.26,256.16,24.15,326.39,120.94a219.57,219.57,0,0,1,18.39,30.07c6.46,25,10.17,52,14.4,82.64,8.77,63.64,14,184.31-47.4,313.59-18,37.92-64.81,133.31-169.57,204.2-26.7,18.07-61,41.28-101.34,55.71h0c-6.38.46-12.87.63-19.46.46a196.43,196.43,0,0,1-32.48-3.59c-40.87-8-72.26-27.41-93.27-44.11-4.67-3.71-8.84-7.28-12.48-10.58a470.66,470.66,0,0,1-48.06,23.2c-4.46-3.57-8.44-7-11.94-10.16a465.73,465.73,0,0,1-69.38,31.38h0c-1.94.09-3.86.13-5.76.13-30.65-5.92-58-21-85.4-36.43-110.72-62.35-166.48-159.47-191.43-204.2-27.63-49.51-70.81-129-74.76-240.67-.78-22-1.64-53.42,3.64-90.12-15.07,55.55-13.86,103.93-12.77,134.42a456.59,456.59,0,0,0,23.26,128.7.43.43,0,0,1,0,.05c15.62,47,36,84.17,51.48,111.92,18.81,33.7,55.07,97.11,119.15,153,0,0,.06.07.09.07a432.91,432.91,0,0,0,72.2,51.14l2.95,1.66c6.39,3.59,12.79,7.14,19.22,10.55,4.42.47,8.91.74,13.48.78,23.45,9.57,48.25,15.25,76.33,12.26,33-3.52,70.59-19.07,94.82-30.64a220.16,220.16,0,0,0,19.81,11.06q3.72-1.81,6.89-3.44a213.08,213.08,0,0,1-20.9-10.42c12.12-6,19.71-10.32,19.71-10.32,4.43,4,9.65,8.46,15.63,13.06v0l.16.14A245.39,245.39,0,0,0,6474.6,7634v0c4.93,3.39,10.29,6.8,16,10.11a208.37,208.37,0,0,0,64,24.16,197.1,197.1,0,0,0,61.14,2.26c62.77-7.39,114.88-42.66,152.18-67.89,104.75-70.89,151.53-166.29,169.55-204.21A541.21,541.21,0,0,0,6982.86,7253v0A568.25,568.25,0,0,0,6984.91,7084.85Z" transform="translate(-5848.88 -6487.56)"/><path class="cls-2" d="M6470.75,6867.88c0-55.66,4.35-108.05,12-153.88,17.19-102.7,51.06-172.48,90.08-172.48" transform="translate(-5848.88 -6487.56)"/><path class="cls-2" d="M6681.32,7143.42" transform="translate(-5848.88 -6487.56)"/><path class="cls-1" d="M5957.54,6987.66" transform="translate(-5848.88 -6487.56)"/><path class="cls-1" d="M5937.71,7664.69" transform="translate(-5848.88 -6487.56)"/><path class="cls-1" d="M6969.58,7162.6" transform="translate(-5848.88 -6487.56)"/><path class="cls-2" d="M6392.48,6653.46" transform="translate(-5848.88 -6487.56)"/><path class="cls-3" d="M5815.39,7162.6" transform="translate(-5848.88 -6487.56)"/><path class="cls-2" d="M6392.48,7671.75" transform="translate(-5848.88 -6487.56)"/><path class="cls-2" d="M6448.85,7613.6c-.3.16-5.68,3.24-14.44,7.68a213.08,213.08,0,0,1-20.9-10.42c12.12-6,19.71-10.32,19.71-10.32C6437.65,7604.55,6442.87,7609,6448.85,7613.6Z" transform="translate(-5848.88 -6487.56)"/><path class="cls-2" d="M6474.6,7634a202.24,202.24,0,0,1-40.19-12.71c8.76-4.44,14.14-7.52,14.44-7.68l.17.12A245.39,245.39,0,0,0,6474.6,7634Z" transform="translate(-5848.88 -6487.56)"/><path class="cls-2" d="M6568.84,7624.91a196.43,196.43,0,0,1-32.48-3.59c-40.87-8-72.26-27.41-93.27-44.11,9.3-4.7,14.91-7.92,14.91-7.94,20,18.08,55.76,44.94,105.75,54.71Q6566.3,7624.48,6568.84,7624.91Z" transform="translate(-5848.88 -6487.56)"/><path class="cls-2" d="M6568.84,7624.91a196.43,196.43,0,0,1-32.48-3.59c-40.87-8-72.26-27.41-93.27-44.11-4.67-3.71-8.84-7.28-12.48-10.58a470.66,470.66,0,0,1-48.06,23.2c3.6,2.88,7.5,5.83,11.71,8.81,5.84,4.11,12.25,8.25,19.25,12.22,12.12-6,19.71-10.32,19.71-10.32,4.43,4,9.65,8.46,15.63,13.06l.17.12A245.39,245.39,0,0,0,6474.6,7634v0l1.74.35q3.45.68,6.86,1.22h0c35.66,5.67,68.73.89,98.63-8.94h0c2.16-.7,4.3-1.44,6.42-2.2C6581.92,7624.91,6575.43,7625.08,6568.84,7624.91ZM6888,6953.43a.51.51,0,0,0,0-.1,219.8,219.8,0,0,0-32.38-64.67c-21.85-30.12-50.64-54.87-83.39-74.16h0a339.77,339.77,0,0,0-36.94-18.8s0,0,0,0c-47.46-20.66-100.11-31.34-150.62-31.79h0a358.56,358.56,0,0,0-43.87,2.27h0a297.34,297.34,0,0,0-59.85,13c-2.17.71-4.32,1.47-6.45,2.23-5.87,2.13-11.61,4.47-17.16,7-1.45.65-2.87,1.33-4.28,2a201,201,0,0,0-23.57,13.28q-5.32,3.48-10.33,7.31c-2.07,1.57-4.09,3.19-6.08,4.85-1.37,1.15-2.73,2.32-4.06,3.51-4.54,4.05-8.46,8-11.77,11.6-.69.75-1.35,1.49-2,2.21-.47.52-.92,1.05-1.35,1.54-2.9,3.35-5.16,6.22-6.77,8.36a393.84,393.84,0,0,0-39.78-26,386.77,386.77,0,0,0-42.66-21h0q-7.67-3.2-15.85-6.22-7.19-2.64-14.74-5.07c-9.17-2.95-21.11-6.78-35.27-10.43a352.8,352.8,0,0,0-74.45-11.31h0a289,289,0,0,0-39.47,1.17,265,265,0,0,0-45.4,8.49,259.07,259.07,0,0,0-29.65,10.26c-90.24,37.41-131.94,113.7-149.52,145.86-47.15,86.28-45.3,167.51-43.74,211.49a457.07,457.07,0,0,0,24.89,133.55c.1.31.22.61.32.92,4.17,12,8.62,23.4,13.21,34.1a.24.24,0,0,1,0,.08c12.29,28.68,25.49,52.65,36.3,72,25,44.73,80.73,141.86,191.44,204.2,26.18,14.74,52.25,29.12,81.22,35.57,4.22.93,8.51,1.71,12.86,2.29a140.92,140.92,0,0,0,33.56.43c15.83-1.69,32.71-6.14,48.67-11.61h0l2.23-.77c-1.94.09-3.86.13-5.76.13-30.65-5.92-58-21-85.4-36.43-110.72-62.35-166.48-159.47-191.43-204.2-27.63-49.51-70.81-129-74.76-240.67-.78-22-1.64-53.42,3.64-90.12,0,0,0,0,0,0h0s0,0,0-.05a352.12,352.12,0,0,1,31-77c17.57-32.16,59.27-108.45,149.5-145.86,1.54-.64,3.09-1.27,4.64-1.85,48.33-6.7,92.07.6,124.35,8.9,14.15,3.64,26.09,7.48,35.26,10.43,5.05,1.61,10,3.31,14.74,5.06a390.48,390.48,0,0,1,98.3,53.28,169.46,169.46,0,0,1,21.88-23.7q5.74-5.13,12-9.79c10.07,6.31,18.78,12.4,26.1,17.84a168.62,168.62,0,0,1,21.88-23.71c16.91-15.11,37.4-27.09,60.28-36h0c114.18-17.26,256.16,24.15,326.39,120.94a219.57,219.57,0,0,1,18.39,30.07C6891,6963.27,6889.55,6958.31,6888,6953.43Z" transform="translate(-5848.88 -6487.56)"/><path class="cls-2" d="M6859.24,7364.53c-18,37.92-64.81,133.31-169.57,204.2-26.7,18.07-61,41.28-101.34,55.71h0c-6.38.46-12.87.63-19.46.46q-2.54-.43-5.09-.93c-50-9.77-85.75-36.63-105.75-54.71,0,0-5.61,3.24-14.91,7.94-4.67-3.71-8.84-7.28-12.48-10.58a470.66,470.66,0,0,1-48.06,23.2c-4.46-3.57-8.44-7-11.94-10.16a465.73,465.73,0,0,1-69.38,31.38h0c-1.94.09-3.86.13-5.76.13-30.65-5.92-58-21-85.4-36.43-110.72-62.35-166.48-159.47-191.43-204.2-27.63-49.51-70.81-129-74.76-240.67-.78-22-1.64-53.42,3.64-90.12,0,0,0,0,0,0h0s0,0,0-.05a352.12,352.12,0,0,1,31-77c17.57-32.16,59.27-108.45,149.5-145.86,1.54-.64,3.09-1.27,4.64-1.85,48.33-6.7,92.07.6,124.35,8.9,14.15,3.64,26.09,7.48,35.26,10.43,5.05,1.61,10,3.31,14.74,5.06a390.48,390.48,0,0,1,98.3,53.28,169.46,169.46,0,0,1,21.88-23.7q5.74-5.13,12-9.79c10.07,6.31,18.78,12.4,26.1,17.84a168.62,168.62,0,0,1,21.88-23.71c16.91-15.11,37.4-27.09,60.28-36h0c114.18-17.26,256.16,24.15,326.39,120.94a219.57,219.57,0,0,1,18.39,30.07c6.46,25,10.17,52,14.4,82.64C6915.41,7114.58,6920.67,7235.25,6859.24,7364.53Z" transform="translate(-5848.88 -6487.56)"/><path class="cls-2" d="M6392.48,6834c0-55.67,4.35-108.06,12-153.89,17.19-102.69,51.06-172.47,90.08-172.47" transform="translate(-5848.88 -6487.56)"/><path class="cls-1" d="M5879.28,6953.74" transform="translate(-5848.88 -6487.56)"/><path class="cls-1" d="M5859.44,7630.78" transform="translate(-5848.88 -6487.56)"/><path class="cls-4" d="M7407.09,6807l-1.61,3.77a19.9,19.9,0,0,0-1.61,6.18l-.54,4.3-9.94,14.24-2.69,5.64-6.72,3.23q-3.22,1.6-7.26,6.45-13.44,3.77-20.15,8.87h-5.11l-4.83,1.07-2.15,4.57h-8.87l-1.08,2.15-3.49-.54c-.54,0-1.71,1-3.49,3.09a9,9,0,0,1-6.19,3.36,9.39,9.39,0,0,0-4.56-1.61q-4,0-11.56,4l-9.94-2.42-6.45,4.57a8.31,8.31,0,0,0-3.5-.54,31.15,31.15,0,0,0-7.52,1.62,32.42,32.42,0,0,1-8.87,1.61h-3.76q-3,0-10.75,2.42a46.55,46.55,0,0,1-13.44,2.41,26.25,26.25,0,0,1-7.79-1.07l-8.33,2.42-8.87-3.49-5.37,3.49-3.23-1.35-4,7.8-4.84-4.3-6.72,3.22-2.15-3.76c-1.25.72-4.39,1.26-9.4,1.61l-1.61,11-6.45,8.33-2.15,5.65q-.81,2.42-8.87,13.43l-1.88-1.61h-2.69l1.07-9.41-.53-13.7-8.07-5.38q-3-3-5.64-2.95l-11,5.64h-8.33l-4.3-3.22-1.07-4.57,4.83-4.84.54-4,19.35-4.84a12.74,12.74,0,0,1,5.64-1.07c2.15,0,3.23-.54,3.23-1.61v-.54l-3.23-11a6.67,6.67,0,0,1-.53-3,12.62,12.62,0,0,1,1.07-4.56,22,22,0,0,0,1.08-3l-1.62-26.61,2.69-6.45v-12.63l3.76-8.86-6.45-12.1,6.45-14.24-3.22-37.62,1.61-12.63v-11.56l-4.84-12.63v-19.62l-6.18-9.94v-5.64l-14.78-1.62-11.55,4.84-17.74,1.34a17.13,17.13,0,0,1-3.09-8.06q-.67-4.83-2.82-14,8.32-6.18,14.24-6.18l4.3.53q1.35,0,4-3.22a74.8,74.8,0,0,1,19.08-2.15q6.72,4.83,13.17,4.84a26,26,0,0,0,6.18-1.08c1.08,2.15,2.15,3.23,3.23,3.23q1.07,0,9.4-3.23l6.72,3.23,8.06-2.15,16.66,3.76,9.41,6.18,12.09-2.15,3.77,7,6.71,1.88,9.68,5.91,6.18,1.08,7.79,3.76,4.3-.54q5.37,0,10.48,4.57,10.21.27,24.19,16.39h5.11q6.45,6.45,17.46,8.87l12.63,9.94,14.25,13.17q4.29,3.22,6.72,3.23.8,0,4.3-2.69l2.41,1.61,1.62,8.87q14,12.09,21.5,21.36t8.46,13.31q.94,4,7.39,7.79v7q0,5.64,4.84,10.48a13.07,13.07,0,0,0,3.89,9.4q3.9,4,3.9,5.65Zm-20.42,3.23-1.62-15.32-22-29.83h-3.76l-6.18-14.78-6.45-.54-7.26-5.64-2.15-7.79q-5.11-4.84-20.42-9.68l-4.3-7.79L7269,6692.51l-7.79.54q-4,0-9.95-3.49-3-3.77-6.45-3.77a8.77,8.77,0,0,0-3.76,1.08l-2.95-6.45-8.07.54q-1.07-.81-6.45-1.62a24.9,24.9,0,0,1-9.67-3.49l-2.15,1.08q0-3.77-4.84-3.77-11.28-8.86-30.36-8.86a8.77,8.77,0,0,0-3.77,1.07l1.62,6.18-2.69,8.33a6.49,6.49,0,0,0-1.35,4.3q0,4.57,5.11,8.87l-5.64,9.14a48.26,48.26,0,0,0,2.95,7.12q2.68,5.77,2.69,9.54a28.79,28.79,0,0,1-.81,4.7,29.71,29.71,0,0,0-.8,4.7c0,.9.89,3.59,2.69,8.07l-3.77,1.34,1.62,11.56v21.23l2.15,3.49-6.19,9.94,4,3.77-5.11,13.7,2.42,12.63-5.65,12.63,5.65,10.48-1.35,11,2.42,6.18-3.49,8.06,5.11,13.44,34.13-4a10.68,10.68,0,0,0,2.95-1.34,9.4,9.4,0,0,1,4.57-1.35,56.14,56.14,0,0,1,9.67,1.35,58.33,58.33,0,0,0,10.75,1.34q13.17,0,25.8-8.87,5.64-.54,13.44-.54l13.17.54a17.42,17.42,0,0,0,11.55-4.3,26.18,26.18,0,0,0,10.75-3.49c3.4-2,5.65-3,6.72-3a7,7,0,0,1,5.11,2.15,12,12,0,0,0,8.86-3.49l9.68-1.08,1.07-5.37,4,1.61,5.91-2.69h4l4.84-6.18h3.76l21-15.85Z" transform="translate(-5848.88 -6487.56)"/><path class="cls-4" d="M7533.67,6565.4q-1.89,4.85-9.41,9.14V6578l-4.84,5.38c-1.61,2.15-3.05,3.22-4.3,3.22a8.57,8.57,0,0,1-2.95-1.07l-14.78,17.73-3.77,5.91-13.16,4-6.72,9.94-6.18,2.69q-2.7,1.06-12.1,10.48l-3.22-2.15-.54-6.72,12.63-5.65q2.68-13.42,6.85-15.18t4.17-2.28v-2.15l2.69-1.61,1.07.53,1.35-4h2.15l-2.15-4.84h8.6v-7.79l4-1.07,2.68-4.3,4.3-1.62,4-7.25c1.44,0,2.51-1.08,3.23-3.23h3.22l.54-5.64q5.64-4.84,6.72-11Q7531,6554.66,7533.67,6565.4Zm54.55,276.8-1.08,5.37-5.1,3.77-2.15,6.71-7.53,2.15q-3.49,10.76-7.79,13.71l-6.72,2.42-5.91,6.45q-2.16,1.08-9.41,9.94h-3.76q-3.77,5.39-12.09,6.18-5.91,7.26-6.72,8.6a28.19,28.19,0,0,1-10.35,3.9c-4.21.8-6.85,1.39-7.92,1.74l-2.15,3.23h-8.87l-4.84,3.76-13.71-10.21-7.79-17.74-1.07-28.48-1.62-5.65,5.38-45.14,3.49-2.69L7468.9,6782a29.89,29.89,0,0,1,1.48-9.54,88.58,88.58,0,0,0,2.82-12.23l2.15-1.34a35.21,35.21,0,0,0-3.76-15.32l2.15-7.25V6726.1l2.69-3.49a75.9,75.9,0,0,0-1.89-8.73,51.06,51.06,0,0,1-1.34-5.51c0-2.87.71-4.3,2.15-4.3a1.54,1.54,0,0,0,1.08.54q-3.78-8.61-3.77-11c0-2.69,1.25-4,3.77-4a9,9,0,0,1,3.62,1.47,8.92,8.92,0,0,0,4.17,1.48,9.41,9.41,0,0,0,2.69-1.07q0-4.57,3.76-4.57c2.15,0,3.36.4,3.63,1.21s.76,4.26,1.47,10.34l5.92,2.69-4.84,6.18-5.64,35.21,4.56,8.87a13.23,13.23,0,0,1-5.1,10.48l-1.61,7,1.61,6.18-6.45,22.58.54,2.69-2.69,18.27v13.17l-4,8.87,1.07,7.52-1.07,12.63q0,15.06,4.57,24.72l-.54,3,4.84,3.23,5.64-1.62,6.45,2.69,7.79-3.76q3-2.41,9.41-4l3.76-3.76,1.07,1.61,3.23-4.3,5.64-1.61a32.69,32.69,0,0,1,13.71-7.26q1.88-3.49,7.79-4.3l3.23-5.11,6.18-.53-1.35-5.92h2.42l1.08-2.95,11.55-5.91,1.08-6.72,10.48.54A20.29,20.29,0,0,1,7588.22,6842.2Z" transform="translate(-5848.88 -6487.56)"/><path class="cls-4" d="M7772,6865.31q4,6.18,4,9.14,0,2.15-5,9.13a58.27,58.27,0,0,0-7.66,14.78l-4,.54-5.91,11.56-6.72,1.07-14.78,9.95-2.68,5.91-4.57-.54-4.84,5.64h-7.79l-1.62,2.69-3.76-.54q-5.91,0-10.48,5.38l-3.49-2.69q-5.64,2.68-9.14,2.69-6.18,0-9.94-2.69a38.58,38.58,0,0,1-7.26.54l-3.22-2.69q-14.79-.81-19.89-8.33v-6.72l-8.87-4.84-2.15-5.64q-1.08-2.68-5.91-7v-4.3l-6.18-26.06,1.07-18.55,2.15-10.48v-11.55l3-9.95-1.08-7.25a10.62,10.62,0,0,0,3.77-6.05,33.09,33.09,0,0,1,3.22-8.19q-1.08-4.84-2.15-13.71l4.84-4-4.84-5.38q3.76-6.16,3.76-7.79l-2.68-16.39a41.75,41.75,0,0,1,1.61-11.56q3.22,4.84,7.26,4.84,2.15,0,10.48-2.15a11.56,11.56,0,0,1-.54-3.76q0-3.77,4.3-6.72a101.93,101.93,0,0,1,12.09-25.26,13.3,13.3,0,0,0,5.11-11h2.68l2.69-5.37,3.23-1.35q1.06-3.48,5.64-8.06,6.18-1.87,14.78-12.63a12.17,12.17,0,0,0,4.57.54q.81,0,4.3-6.18,9.4-3.23,9.94-3.23c1.61,0,3.23,1.08,4.84,3.23l5.11-1.08,2.68,2.15h3.23q3,8.86,11,8.87h1.61a8.8,8.8,0,0,0,3.49,5.64l-2.42,1.08q9.4,4.57,9.41,21.23l-1.61,6.18,1.61,15.32-2.69,2.41-6.18,16.4-11,13.7-.54,7.8q-19.62,16.13-32.24,22c-.72,2.15-1.88,3.23-3.5,3.23a17.49,17.49,0,0,1-4.3-1.08l-12.09,8.33h-7.26l-10.48,4.84-4.56-2.69q-1.89-1.07-11.29-2.15-8.34,7.8-8.33,20.16l-3.76,4.57q-1.08,10.22-2.69,14.24l-3,1.61,3,19.89-3,2.69.54,6.18-.54,7.52a96.39,96.39,0,0,0,1.35,10.21q1.34,8.34,4.3,9.68-1.35,3.77,5.24,9.14a39.2,39.2,0,0,0,14.1,7.52v3.22l14.25,2.15,20.42,1.08,13.71-1.61q8.32-5.91,12.09-7.26l4.3-6.45h5.11l.53-2.69q11.82-4,13-5.5a4.6,4.6,0,0,0,1.21-2.83,5.15,5.15,0,0,1,4.83-3.22l1.62-3.49q12.09-1.89,15-15.86A10,10,0,0,1,7772,6865.31Zm-45.14-125.5q2.14-.27,7.25-6.72l1.61-6.45q6.72-11.28,7.8-14.38a23.66,23.66,0,0,0,1.07-7.65q0-4.57-3.76-16.13l-11-3.76a30.15,30.15,0,0,1-5.64,1.07l-3.23-1.07q-4,0-5.64,4.84-4.83,0-14.78,4l-1.61,3.76a4.78,4.78,0,0,0-2.15-.54,3.94,3.94,0,0,0-1.48.27,3.58,3.58,0,0,0-1.21.81,13,13,0,0,0-1.07,1.21,6.17,6.17,0,0,0-.94,1.74c-.27.72-.54,1.48-.81,2.29l-.81,2.42a20.77,20.77,0,0,1-3.36,4.7l-4,4.84-7.79,14.78-4,3.49c-1.26,1.08-2.24,3.41-3,7s-5.55,12.18-14.51,25.8l3.76,2.15,1.88,4.56,9.14,2.69a45.85,45.85,0,0,1,16.66-7.25l1.62-3.23a14.36,14.36,0,0,0,4.3,1.08c1.78,0,3.49-1.08,5.1-3.23l6.45-1.07,4-6.72h3.76l2.69-5.91q7.26,0,13.71-6.72Z" transform="translate(-5848.88 -6487.56)"/><path class="cls-4" d="M7870.66,6708.37l37.89,1.61,36.28-1.61,8.87.54,3.76-.54h19.89q5.64,0,5.64,4.84,0,5.64-8.87,7.25a8.26,8.26,0,0,0-4.57-1.07,10.68,10.68,0,0,0-7,2.68l-7.8-1.61L7940,6721a41.91,41.91,0,0,1-20.42,5.64l-10.48-1.88-5.38,5.11h-5.1v-3.23l-9.41,4.3h-4.83l-1.62,4.84q-4.56-1.35-16.12-2.15c-.54,2.15-1.44,3.22-2.69,3.22-.72,0-1.79-.71-3.22-2.15l-7.8,1.08-5.37,5.64-1.61,26.88,1.07,16.12-1.61,20.69.54,23.11,1.61,11v9.95l6.45,13.7v2.42q0,9.4,11,18l1.61,4.56,9.94,2.15,7.26,7.8,20.42,3.76,26.88-6.18,7.79,2.42L7958,6889l7.26,1.07c2.5,2.51,3.76,4.84,3.76,7q0,4-7,8.87l-4-1.61-8.6,7.25-18.27,2.15-6.19,3.76-6.45-3.76a40.7,40.7,0,0,1-19.34,4.84l-11-2.15h-5.91l-19.89-11.56-9.41-13.16-6.45-7.26-9.94-26.34-4.57-24.72,2.42-9.94-4.57-5.38,2.15-6.18-2.15-9.94,5.65-4.3-2.42-5.11,1.34-6.45-2.42-7.25,1.08-10.48-1.08-5.38,2.42-1.61v-19.89c-1.07-4.83-2.6-7.25-4.57-7.25a3.81,3.81,0,0,0-3.22,2.15l-6.18-2.69-8.6,2.15-8.87-6.45h-4.57q-6.45,0-6.45-7.26l.54-8.33-3.76-2.68,2.14-4.84,8.07,1.07,6.18-1.07,8.87,2.69h23.11l1.07-12.64v-12.63l-3.76-9.4,4.3-3.23a19.52,19.52,0,0,0,1.08-4c0-2.32-1.44-4.3-4.3-5.91l1.07-21.5-4.57-6.72L7833,6628q-5.39-1.08-5.38-4.3l3.76-14.52c3.05-3.93,4.75-6.45,5.11-7.52q16.4,8.06,16.39,9.41v.53l-2.15,5.38q3.76,7.8,3.77,12.09v1.61a22.39,22.39,0,0,0-1.62,7.8,5.81,5.81,0,0,0,1.62,4.3l-.54,4.56.54,5.92-4.84,7.79,3.22,13.71-2.15,16.66,2.15,3.22-3.22,4.84,4.3,13.71h9.94Z" transform="translate(-5848.88 -6487.56)"/><path class="cls-4" d="M8161.16,6865.31q4,6.18,4,9.14,0,2.15-5,9.13a58.27,58.27,0,0,0-7.66,14.78l-4,.54-5.91,11.56-6.72,1.07-14.78,9.95-2.68,5.91-4.57-.54-4.84,5.64h-7.79l-1.62,2.69-3.76-.54q-5.91,0-10.48,5.38l-3.49-2.69c-3.77,1.79-6.81,2.69-9.14,2.69q-6.18,0-9.94-2.69a38.58,38.58,0,0,1-7.26.54l-3.22-2.69q-14.79-.81-19.89-8.33v-6.72l-8.87-4.84-2.15-5.64q-1.08-2.68-5.91-7v-4.3l-6.18-26.06,1.07-18.55,2.15-10.48v-11.55l3-9.95-1.08-7.25a10.62,10.62,0,0,0,3.77-6.05,33.09,33.09,0,0,1,3.22-8.19q-1.08-4.84-2.15-13.71l4.84-4-4.84-5.38q3.76-6.16,3.76-7.79l-2.68-16.39a41.75,41.75,0,0,1,1.61-11.56q3.22,4.84,7.25,4.84,2.16,0,10.49-2.15a11.56,11.56,0,0,1-.54-3.76q0-3.77,4.3-6.72a101.93,101.93,0,0,1,12.09-25.26,13.3,13.3,0,0,0,5.11-11h2.68L8066,6692l3.23-1.35q1.07-3.48,5.64-8.06,6.18-1.87,14.78-12.63a12.17,12.17,0,0,0,4.57.54q.81,0,4.3-6.18,9.4-3.23,9.94-3.23c1.61,0,3.23,1.08,4.84,3.23l5.11-1.08,2.68,2.15h3.23q3,8.86,11,8.87H8137a8.76,8.76,0,0,0,3.49,5.64l-2.42,1.08q9.4,4.57,9.41,21.23l-1.61,6.18,1.61,15.32-2.69,2.41-6.18,16.4-11,13.7-.54,7.8q-19.62,16.13-32.24,22c-.72,2.15-1.88,3.23-3.5,3.23a17.49,17.49,0,0,1-4.3-1.08l-12.09,8.33h-7.26l-10.48,4.84-4.57-2.69q-1.87-1.07-11.28-2.15-8.34,7.8-8.33,20.16l-3.77,4.57q-1.06,10.22-2.68,14.24l-3,1.61,3,19.89-3,2.69.54,6.18-.54,7.52a98.07,98.07,0,0,0,1.34,10.21q1.35,8.34,4.3,9.68c-.89,2.51.85,5.55,5.25,9.14a39.2,39.2,0,0,0,14.1,7.52v3.22l14.25,2.15,20.42,1.08,13.71-1.61q8.32-5.91,12.09-7.26l4.3-6.45h5.11l.53-2.69q11.82-4,13-5.5a4.6,4.6,0,0,0,1.21-2.83,5.15,5.15,0,0,1,4.83-3.22l1.61-3.49q12.1-1.89,15.05-15.86A10,10,0,0,1,8161.16,6865.31ZM8116,6739.81q2.14-.27,7.25-6.72l1.61-6.45q6.72-11.28,7.8-14.38a23.66,23.66,0,0,0,1.07-7.65q0-4.57-3.76-16.13l-11-3.76a30.15,30.15,0,0,1-5.64,1.07l-3.23-1.07q-4,0-5.64,4.84-4.83,0-14.78,4l-1.61,3.76a4.78,4.78,0,0,0-2.15-.54,3.9,3.9,0,0,0-1.48.27,3.58,3.58,0,0,0-1.21.81,13,13,0,0,0-1.07,1.21,6.18,6.18,0,0,0-.95,1.74c-.26.72-.53,1.48-.8,2.29l-.81,2.42a20.77,20.77,0,0,1-3.36,4.7l-4,4.84-7.79,14.78-4,3.49c-1.26,1.08-2.24,3.41-3,7s-5.55,12.18-14.51,25.8l3.76,2.15,1.88,4.56,9.14,2.69a45.85,45.85,0,0,1,16.66-7.25l1.61-3.23a14.5,14.5,0,0,0,4.3,1.08c1.79,0,3.5-1.08,5.11-3.23l6.45-1.07,4-6.72h3.76l2.69-5.91q7.26,0,13.71-6.72Z" transform="translate(-5848.88 -6487.56)"/><path class="cls-4" d="M7353.34,7308.89l-2.68,5.91-7,1.07H7327l-7.8,1.88-6.45-1.88-34.12,3-11.56-3q-14.25,5.66-20.43,5.65h-16.39l-9.94-3.77c0,1.8-1.34,3.05-4,3.77a50.2,50.2,0,0,0-14.65,2.15,46.29,46.29,0,0,1-13.3,2.15l-11-4.3-9.4,4.3-1.08,3.49H7162l-2.95,5.37-2.15,35.75,2.15,5.1-1.08,5.91.54,15.86-1.61,16.12v4.84a8,8,0,0,1-1.48,5.24q-1.48,1.76-2.28,8.74l4.3,7-1.08,8.87-3.76,2.69q0,3.23,3.22,8.33l-3.22,5.37v6.18l-4.3,6.45,2.69,15.59-1.08,22.57-4,14.25a8.34,8.34,0,0,1,1.07,3.22,8.65,8.65,0,0,1-.94,3.63,5.25,5.25,0,0,0-.26,4,11.31,11.31,0,0,1,.67,3.36q0,1.62-2.69,7.12c-1.79,3.68-2.42,6-1.88,6.86q.26.54,1.88,8.59-2.68,7.26-2.69,11a106.34,106.34,0,0,0,1.08,12.1,19.08,19.08,0,0,1-5.78-.81,16.77,16.77,0,0,0-3.09-.81q-4.31,0-4.3-15.85l1.07-8.33a115.87,115.87,0,0,0-1.07-13.17,113,113,0,0,1-1.08-12.63l3.23-38.7q-4.31-7.26-4.3-8.06a6.37,6.37,0,0,1,2.69-5.11,8.06,8.06,0,0,1-2.15-4.83c0-1.08,1.07-2.15,3.22-3.23q-2.15-5.37-2.15-7.26a24.07,24.07,0,0,1,1.88-7.92,32.3,32.3,0,0,0,1.88-5.78l-.53-8.87c0-1.07,1.7-5.11,5.1-12.09q-4.58,0-4.57-7.26,0-12.63,3.23-14.24v-22.58l-3.23-11,3.23-23.11-3.23-16.4,3.23-12.9c-1.44-5-3.94-7.52-7.53-7.52a6.37,6.37,0,0,0-5.1,2.69l-7.79.8a18.33,18.33,0,0,0-8.6,3l-6.72-.54-6.45.54v1.88h-4.57q-9.14,0-14.78-3.49l-1.08,3.49-11.55-3.49-32-1.08-12.63,3.76q-14.25-12.36-14.25-16.39a71.23,71.23,0,0,1,2.15-8.87h8.87l39,7.79,9.41-3.22,25.79,1.08,24.19,2.14,16.12-6.18h4.3l4.57-12.63,7.53,2.42,1.61,5.38,3.49-1.62q4.3,5.66,12.63,9.41l8.87-3q8.86,0,15.32,7.26l3.22-4.3,20.43-4,12.63,1.07a24.25,24.25,0,0,0,9.94,2.42h2.69a25.49,25.49,0,0,1,8.33-1.88l7.79,1.35a3.16,3.16,0,0,0,3.23-1.89l11-1.61,12.63,3q2.68,2.69,7.66.94c3.31-1.16,5.51-1.75,6.58-1.75l9.94,1.88,27.42-.53,12.09,2.15Z" transform="translate(-5848.88 -6487.56)"/><path class="cls-4" d="M7612.14,7470.66q-5.66,4.31-5.65,9.95a33.61,33.61,0,0,0,.54,5.37l3.23,19.89-3.23,21.5,1.08,8.87-2.69,7.52L7607,7568l-1.61,3.49v19.62l-1.08,15.58,2.15,5.38-1.07,36.28,2.69,6.72-2.69,3.22,1.61,9.95-2.69,2.68,2.15,8.33h-2.15l-1.07,4.3v8.33l-2.69,6.72,1.08,4.84-11.56,20.42-1.07,10.48-3-.53-4.84,6.45a62,62,0,0,0-9.94,14l-9.94,5.91q-4.31,12.63-15.86,12.63a2.2,2.2,0,0,1,.54,1.62c0,1.25-.72,1.88-2.15,1.88l-2.42,2.15q-7.8,3.75-9.14,6.45h-6.18l-1.61,2.15-7.26-1.62-11,7.26-6.45-1.08-17.73,2.69-4.84-.54-2.69.54-16.12-2.69h-4.3l-5.64-5.1-2.69.54-19.35-6.45-13.71-2.15-3.22-5.65-8.87-1.07-3.76-9.41-5.11-1.61-7.52-10.48-7.79-3.76-7.26-10.48a17,17,0,0,0-4.57-4L7356,7727l3-7-5.11-5.64.54-3.23q0-5.64-3.76-14.24a34.77,34.77,0,0,1-1.08-7.79,37.93,37.93,0,0,1,2.15-11l2.15-6.18v-1.61l3.76-2.15,1.35-2.69,2.15.54,1.34-6.45q.81-4,12.9-15.05l7.79-2.15,13.17-11.56,15.32,1.08c2.51-3.77,4.74-5.65,6.72-5.65,2.5,0,3.76,1.52,3.76,4.57a6,6,0,0,1-.54,2.69l-7.25,3.22-4.84,4c-1.44,1.08-5.64,2.69-12.63,4.84l-3.76,7.79h-7.8a82.22,82.22,0,0,1-15.31,19.08l.53,10.49a24.44,24.44,0,0,0-4.57,14l-2.68,1.61,12.09,28.49,11,4,1.61,6.45,17.2,16.66,6.45,1.88a23,23,0,0,1,7,4l7.79,7.26h8.87l6.72,6.45,8.87-1.08,3.76,3.5,31.44-1.35,4.3-1.07v1.07c0,2,.71,3,2.15,3,.18,0,.63-.36,1.34-1.08a19.31,19.31,0,0,1,14.25-5.64h2.68l17.47-7.26v2.42q3.49-2.69,3.49-3.49h-1.88a4.79,4.79,0,0,1,3.5-1.08,5.92,5.92,0,0,1,2.68.54q.81-4.83,4.84-4.83h1.88l1.08-3.23c2.5,0,3.76-1.52,3.76-4.57h.54q3,0,4.57-4t4.83-4.3l1.62,1.35q.79-7,8.33-11.56a19.52,19.52,0,0,0,6.45-15h3q8.32-17.73,12.1-28l-1.08-1.61,1.08-14,2.68-1.61v-12.63l2.15-3.76-4.83-6.18q4.83-4.85,4.83-5.38a30.23,30.23,0,0,0-1.07-4.16,29.8,29.8,0,0,1-1.08-8.47v-2.15l1.08-22.57v-32l-2.69-6.18,2.69-11-1.08-12.63v-29l-1.07-6.18,2.15-5.92-2.15-5.1,2.15-4.84-1.08-20.42-5.1-4.84,5.1-5.11-1.07-4.3,1.07-8.33-2.68-3.22,1.07-6.72-3.49-6.45a16.8,16.8,0,0,1-7,4.3l-2.69,6.72-4.57,2.69-1.07,6.45-8.87,6.18,1.08,2.68-4.3,6.18-3.77,1.08-1.61,2.69-8.33,2.68v7.26h-4l-1.61,6.45-18.55,17.2-12.63,14.24-6.71,2.15-3.23,5.11-12.63,11.55L7481,7540q-.27.54-9.94,8.87l-1.61,4.83-4.84,2.69H7460l-2.69,5.11-5.91,1.07-11,11-9.94,1.61-4,3.76q-4,1.35-11,4l-1.61,4.3q-2.69,1.6-12.63,1.61-11.84,0-14.78-4.84l-11-18.81-1.07-8.87-5.65-20.15V7518.5l-2.15-5.38,3.5-13.43-2.42-8.6,2.42-2.42.53-7,3.77-8.33-.54-12.63,2.69-7.25-2.69-4.84,5.37-25.26-1.61-16.66,1.61-14.79-4.83-20.42,2.15-4.84-2.15-4,4.3-10.75-2.15-4.57,3.76-3.22v-7.26l6.18-.53a24.22,24.22,0,0,0,7.25,11l-1.88,3.77,3.5.8-1.62,7,4.3,7.79-1.61,3.77,1.61,8.86,2.69,2.15-3.76,8.33,3.22,14.25-6.45,8.87,3.23,3.76-3.23,21V7457l-2.41,2.69-2.15,28.48-5.92,7.8,1.08,5.1v12.63l2.69,7.53-2.69,6.18,1.07,9.4-2.15,4.3,2.15,4.84v6.72l5.92,6.18,1.88,6.45,3.76-.54L7398,7568l4.3-2.69,11.56,1.07,4-8.86,13.71-5.38.53,1.61a7.73,7.73,0,0,1,4.3-6.45,48.8,48.8,0,0,0,9.27-6.58,36.41,36.41,0,0,1,11.69-6.85l-.53,3c1.79-.71,2.68-1.7,2.68-3a9.63,9.63,0,0,0-1.07-2.69q5.37-.54,17.87-12.5t25.67-13.84l6.71-11,1.08,3.22v-4.84q8.06-1.6,8.6-8.86l6.18-4.3c3.58-1.62,5.37-4.21,5.37-7.8v-1.61a47.9,47.9,0,0,1,14-7.26l1.07-4.3q10.22-11.82,13.71-18.27,8.33-4.29,11.55-11l9.95-21-.54-12.63,4.3-2.15v-10.48l-2.69-8.87,1.61-8.06-4.83-3-.54-1.61q0-1.87,2.82-6.05a25.27,25.27,0,0,0,3.63-7.12l2.15-1.61.54-3.76a11.21,11.21,0,0,1,6.18-2.15l11.55,11.55.54,6.45.27,5.38q.27,1.88,5.11,10.48l-3.23,3.49,1.08,7.53-1.08,6.18,4.57,4.83-4.57.54v7.8l-2.69,9.94,2.69,14.24-.54,10.48,1.62,3.76-1.08,10Z" transform="translate(-5848.88 -6487.56)"/><path class="cls-4" d="M7998,7538.92l-2.95,5.92q0,12.36-4.3,18.27-6.72,5.64-6.72,8.87-1.62,3.77-4.84,9.94l-4.84,4q-2.42,1.88-4.57,7.53l-18,9.67a90.19,90.19,0,0,1-19.35,3.49l-8.33-4h-6.45l-5.64-4.3-5.92-.53-19.88-10.48-44.08-40.05-11-17.19-8.87-7.8q-1.62-3.75-8.6-12.09-4.57-3.77-10.48-12.23a32.08,32.08,0,0,0-15.05-12l-10.48-21q.26-2.69,4-16.93l10.48,7.26,5.91,6.45q2.68,2.69,16.66,11.55h7l3,2.69a20.48,20.48,0,0,1,5.37-.54,13.88,13.88,0,0,1,6.18,1.61,43.24,43.24,0,0,1,15.46-6.58,128.68,128.68,0,0,0,15.18-4.43l2.69-5.38H7882c.17-1.61,1.25-2.91,3.22-3.9a22.77,22.77,0,0,1,3.23-1.47H7890q8.33,0,11.56-13.44c5.55-2.86,8.86-4.75,9.94-5.64l3.49-3.5q2.15-1.87,7.53-12.09h1.07q5.37,0,11-20.42h2.69l1.07-4-1.07-9.13,1.07-9.41q0-6.18-15.85-13.7c-1.62-3.41-4-5.11-7.26-5.11h-1.61l-3.23-2.69q-11.55-.8-23.78-2.55t-14.65-1.75q-9.41,0-22,8.06a68.84,68.84,0,0,0-14.51,1.62l.8,1.07a35.46,35.46,0,0,0-6.18,1.61,49.36,49.36,0,0,0-5.78,2.56c-1.88,1-4,2.24-6.45,3.76a34.8,34.8,0,0,1-6.58,3.36l-7,2.69-19.35,15.85-19.35,21v3.77l-9.13,18.27-4.57,12.09q-8.86,14.52-8.87,22.58a12.19,12.19,0,0,0,2.42,7q0,4.85-3,6.19a19.73,19.73,0,0,0-3.76,11.55l.54,4.84a22.32,22.32,0,0,1-1.61,8.33q-5.12,6.18-6.18,9.4l2.41,9.95-2.41,11.55,1.34,8.33a35.29,35.29,0,0,0-4,16.93v3.23a19.21,19.21,0,0,1,1.07,4q0,6.45-9.94,9.14c-3.22-.9-5.56-4.4-7-10.48l-2.15-7,1.61-9.41-1.61-21.49,1.61-4.84v-21l.54-7.26v-6.45q0-14.51,1.08-25.53t1.07-11.29V7447l1.08-5.11v-15.32l1.61-5.91-1.61-7.79,1.61-18.82V7371.5l-1.61-7.52,2.69-5.11-1.08-5.91-1.61-31.44-3.77-18.28v-4.3l2.69-20.42-2.15-8.87-.54-13.71a88.41,88.41,0,0,1-1.07-10.48q0-11,12.63-11l1.61,4,3.23-1.88-1.08,8.86,2.69,15.59-3.76,16.39,1.07,21.5,2.69,8.87-1.61,8.6,1.07,15.05-2.15,11.56,2.69,11-1.61,3.77,2.69,7.79-1.62,13.7-2.15,39a67.48,67.48,0,0,1,1.08,8.33l-1.08,7.79,1.08,10.49a24.41,24.41,0,0,1-2.15,10.48,21.83,21.83,0,0,0,7.79,5.37l6.45-13.7-.54-2.69q0-3.22,10.62-27t23-38c2.5-.53,3.76-1.43,3.76-2.68a4.05,4.05,0,0,0-1.08-2.42q13.17-7.8,15.32-10.08a38.13,38.13,0,0,1,4-3.76,34.57,34.57,0,0,1,4.57-3,17.74,17.74,0,0,1,4.57-1.88,8.68,8.68,0,0,0,3.76-2,33.55,33.55,0,0,1,5.51-3.63,76,76,0,0,1,11.42-4.7q4.57-6.45,22.58-8.87l21.23-2.69,38.69,2.69,5.92,3.49q3,1.62,9.4,2.69,20.43,19.62,21.5,19.61a8.39,8.39,0,0,0-1.61-3.22l7.79,17.74-1.34,4.3q4,4.56,4,8.86t-6.18,12.1v4.84l-5.91,18.81-8.33,12.09-3.77.54q-.54,2.68-4.43,7t-4.44,6.72q-5.91,0-11,6.18-5.11,1.62-6.18,5.92a21.15,21.15,0,0,0-12.64,8.33,2.2,2.2,0,0,0,1.62-.54h.8q0,2.16-51.33,18.81-5.37-3-8.33-3c-2.86,0-4.3,2.07-4.3,6.19v1.07l-.53,2.69,4.3,5.1,1.88,8.07q1.06,5.64,9.13,9.4l9.41,18.81,14.24,8.87.54,2.69,6.18,3.22,2.15,5.65,3.23-.54,16.66,16.39,20.42,8.33,12.63,3.77,10.48-1.08,4.84-2.15a47.27,47.27,0,0,0,16.66-6.72q8.07-5.1,8.6-5.91l9.94-18.81,4-5.11q2.15-2.69,4.83-10.75a17.79,17.79,0,0,1,4.3-1.07C7995.26,7535.7,7996.79,7536.77,7998,7538.92Z" transform="translate(-5848.88 -6487.56)"/><path class="cls-4" d="M8226.47,7570.37l-7.8,3.76-1.61,4.83a38.39,38.39,0,0,0-8.33,3L8206,7580l-4,1.88-8.6-10.48v-12.09l-4-3.5,1.08-16.93-3.23-35.2,2.15-11.56-3.76-6.18,4.84-2.68-3.23-4.84,1.08-5.11,2.68-2.15-.53-6.72h2.95v-11l1.08-5.38q-2.16-.54-5.11-5.11l-8.6,4q-3.49,6.72-7.25,8.86l-.54,5.92-6.18,2.68-1.08,7.8L8162,7475v4a23.56,23.56,0,0,0-7.79,9.67l-3.76,2.42-8.34,14.78L8128.92,7519l-4.3,7.25-11.56,12.1-3,6.45-15.85,11-17.74,21-5.91,1.62c-1.79.35-4.57,2.24-8.33,5.64h-1.61q-4.58,0-7.26-8.87-20.7-8.05-21.77-23.11l4.3-2.69a73.89,73.89,0,0,1-4.3-21.49l-2.95-2.16,1.88-2.95a14.11,14.11,0,0,0,1.61-5.51q.54-3.9,1.61-10.88l3.77-20.43a9,9,0,0,1-.54-3.76,13.88,13.88,0,0,1,1.61-6.18,25.71,25.71,0,0,1-1.07-5.91,20.16,20.16,0,0,1,1.07-5.65l2.15-.53q4.56-6.18,4.57-10.48a5.55,5.55,0,0,0-1.75-4.3c-1.16-1.08-1.74-1.79-1.74-2.15,0-1.26,1-2.15,2.95-2.69-2.69-.54-4-1.7-4-3.5s1.88-2.68,5.64-2.68v-1.08a19,19,0,0,1,3.36-10.88c2.24-3.31,3.45-5.6,3.63-6.85l-3.76-1.08,7.25-11.55V7404a28.67,28.67,0,0,1,7.53-19.89l-.54-9.94,2.42-1.61a8.6,8.6,0,0,1-1.88-5.38c0-1.07,1.16-1.61,3.49-1.61v-8.87c1.79-.54,2.69-1.43,2.69-2.69a6.67,6.67,0,0,0-.54-2.95,93.31,93.31,0,0,1,7.53-8.87q5.91-6.45,7.79-10.75H8087c4.12,0,6.18-1,6.18-3a4.36,4.36,0,0,0-1.61-2.68q11,0,11.56-4.3l9.94-5.11,28.49,2.42V7321l23.11,4.84h2.15q5.1,0,5.1,4.56l2.69-1.07c.9,3.22,3,4.84,6.18,4.84l2.69-.54,4.84,4.84,11.55,2.95v4.84a79.84,79.84,0,0,1,19.89-8.87v8.87h-2.69l5.38,2.69-1.08,1.07,4.3,14-4.84,5.37-2.15,9.14a41.76,41.76,0,0,1-5.1,11.28l3.49,7c-.36.54-1.39,2-3.09,4.3s-2.55,6.45-2.55,12.36a2.79,2.79,0,0,1,1.61,2.69l-1.07,4.57.53,3.76-1.61,5.91,1.08,5.11-3.23,3.76,1.08,12.1-1.62,1.61,1.62,2.42-1.62,1.61a3.1,3.1,0,0,1,.54,2.15,8.74,8.74,0,0,1-1.61,4.84l1.61,3.49-2.69,4.84c-1.43.9-2.15,3.49-2.15,7.79l2.15,7-5.1,6.72q2.68,5.64,5.1,7.25-4,5.64-6.71,21.23l4.56,1.08-.53,2.95a8.33,8.33,0,0,1,.53,3.77c0,2.86-1.34,6.54-4,11h3.5l1.61,8.33,11,1.08,3.76,7c-1.08.71-1.61,1.34-1.61,1.88,0,1.43,1.78,3.22,5.37,5.37H8223c-.71,0-1.07.18-1.07.54Q8221.9,7566.61,8226.47,7570.37Zm-28.22-197.79-3.22-9.95-8.87-2.69-15.32-13.7q-3.49-2.14-5.65-2.15a14.46,14.46,0,0,0-4.29,1.08l-2.69-2.69h-8.87l-2.69-3.5-6.18,2.42-2.69-2.42-4.56,1.35-8.6-1.35q-6.2,0-19.35,6.19l1.07,2.14-4.84,1.62-1.07,2.15-6.18.8v3.23q-5.39,3.23-12.63,17.47a181.85,181.85,0,0,1-9.94,28.21l4.29,2.15-7,6.18,2.15,4.3a29.77,29.77,0,0,0-4.84,16.93v3l-4,5.91v9.41a17.82,17.82,0,0,0-4.84,9.94l-2.15,2.15v9.94l-1.88,2.69a71,71,0,0,1-2.15,14.78l3,6.72q-3.49,1.35-7.8,6.72l2.15,4.3-3.22,4.3,4.3,11-4.84,6.72.54,13.16-1.61,6.18,2.68,1.62,1.08,3.76a18.5,18.5,0,0,1,7.79,6.18l12.63-3q3.49-8.06,12.1-8.6l-1.08-4c5.55-1.43,8.47-2.19,8.74-2.28s.67-1.12,1.2-3.09,2.15-3.85,4.84-5.64h1.08c1.07,0,1.61-.72,1.61-2.15l9.94-11.56h-2.15l5.91-5.38a24.21,24.21,0,0,1,8.87-5.1l4-10.48q10.22-4.3,11.56-11.56h3.22l5.38-7-1.08-4.57,5.11-1.08a6.56,6.56,0,0,1-1.07-2.69c0-.53,1.25-2.55,3.76-6s4.47-6.41,5.91-8.74l2.42,1.08a13.51,13.51,0,0,1,5.91-9.94,12.24,12.24,0,0,1,4.3-6.86q3.22-2.55,4.57-2.55h3.76l.54-6.72a3.1,3.1,0,0,0,1.07-2.15,4.61,4.61,0,0,0-1.61-3.22q4.84-8.07,7.79-10l1.08-5.91,3.76-2.95-1.07-4.84a27.09,27.09,0,0,0,4-9.95l4.84-4.83Z" transform="translate(-5848.88 -6487.56)"/></g></svg>