<svg id="Warstwa_1" data-name="Warstwa 1" xmlns="http://www.w3.org/2000/svg" viewBox="0 0 1157.26 1193.27"><defs><style>.cls-1,.cls-2{fill:none;stroke-miterlimit:10;stroke-width:14px;}.cls-1{stroke:#ccc;}.cls-2{stroke:#fbecb2;}</style></defs><title>Logo_1x1</title><path class="cls-1" d="M630.86,155.51" transform="translate(0 0)"/><path class="cls-1" d="M630.86,1173.8" transform="translate(0 0)"/><path class="cls-1" d="M594.07,1089.65a469.73,469.73,0,0,1-48.83,21.43c-1.77.65-3.57,1.3-5.39,1.93-16.69,5.85-34.52,10.69-51.2,12.46a142.08,142.08,0,0,1-20,.72h0a142.06,142.06,0,0,1-18.64-1.93h0c-1.17-.19-2.35-.41-3.51-.64,1.9,0,3.82,0,5.76-.13h0a466.64,466.64,0,0,0,69.38-31.38c3.5,3.17,7.48,6.59,11.94,10.16a470,470,0,0,0,48.06-23.2C585.23,1082.37,589.4,1085.94,594.07,1089.65Z" transform="translate(0 0)"/><path class="cls-1" d="M1133.84,765.44h0a540.28,540.28,0,0,1-36.24,101.14c-11.6,24.41-35.12,72.62-78.33,122.79h0a461.8,461.8,0,0,1-84,76.36h0q-3.59,2.55-7.24,5c-41.56,28.1-101.5,68.68-174.07,69.28a193.53,193.53,0,0,1-21.12-1h0q-6.45-.63-13-1.74c6.59.17,13.08,0,19.46-.46h0c40.36-14.43,74.64-37.64,101.34-55.71,104.76-70.89,151.54-166.28,169.57-204.2,61.43-129.28,56.17-249.95,47.4-313.59-4.23-30.66-7.94-57.6-14.4-82.64a218.49,218.49,0,0,0-18.39-30.07c-70.23-96.79-212.21-138.2-326.39-120.94h0c-22.88,8.91-43.37,20.89-60.28,36a167.74,167.74,0,0,0-21.88,23.71c-7.32-5.44-16-11.53-26.1-17.84q-6.28,4.67-12,9.79A169.36,169.36,0,0,0,556.29,405,390.06,390.06,0,0,0,458,351.74c-4.79-1.75-9.69-3.45-14.74-5.06-9.17-3-21.11-6.79-35.26-10.43-32.28-8.3-76-15.6-124.35-8.9-1.55.58-3.1,1.21-4.64,1.85-90.23,37.41-131.93,113.7-149.5,145.86a352.09,352.09,0,0,0-31,77,356.61,356.61,0,0,1,40.1-121.33,454.73,454.73,0,0,1,27.28-44.88h0c5.21-7.44,11.07-15.2,17.66-23,24.08-28.71,57.8-58.52,104.53-77.9l3.79-1.54h0c7.83-3.11,15.62-5.75,23.32-8h0l2.52-.72a276.41,276.41,0,0,1,89.87-9.43h0A356.34,356.34,0,0,1,477,276.33c14.14,3.64,26.09,7.49,35.26,10.43q7.56,2.43,14.73,5.07,9,3.32,17.46,6.89h0c1,.41,1.94.83,2.91,1.26,6.28,2.7,12.27,5.5,18,8.35q7.77,3.84,14.89,7.79c2.71,1.48,5.34,3,7.89,4.47,5.42,3.14,10.5,6.27,15.26,9.32l3.15,2.06h0c5.76,3.78,11,7.44,15.72,10.89l3,2.21a170,170,0,0,1,21.88-23.71c17.09-15.26,37.84-27.34,61-36.28h0a257.22,257.22,0,0,1,27.24-8.79h0c33.19-8.79,69.91-12,107.29-9.68,95.78,5.84,195.75,47.73,251.11,124.05,35.39,48.8,42.07,97.22,51,162.26A560.14,560.14,0,0,1,1133.84,765.44Z" transform="translate(0 0)"/><path class="cls-1" d="M630.86,336c0-55.67,4.35-108.06,12-153.89C660.07,79.44,694,9.66,733,9.66" transform="translate(0 0)"/><path class="cls-2" d="M117.66,455.79" transform="translate(0 0)"/><path class="cls-2" d="M97.82,1132.83" transform="translate(0 0)"/><path class="cls-1" d="M606.08,186.73" transform="translate(0 0)"/><path class="cls-1" d="M606.08,1205.06" transform="translate(0 0)"/><path class="cls-1" d="M1122.27,600.89c-.64-5.9-1.33-11.47-2-16.64-9-65-15.65-113.47-51.06-162.28a251.16,251.16,0,0,0-35.85-39.57c-40.46-36.3-92.56-61.15-147.1-74.26h0c-12.83-3.1-25.81-5.53-38.8-7.32-85.42-11.71-171.47,4.91-223.89,51-.34.28-.68.59-1,.88-.14.13-.28.24-.41.37a167.73,167.73,0,0,0-21.47,23.34c-2.67-2-5.5-4.05-8.54-6.18-8.41-5.92-18.22-12.33-29.41-18.79q-3.84-2.25-7.89-4.45c-2.17-1.2-4.4-2.39-6.67-3.56-.65-.35-1.3-.69-2-1l-2.66-1.37a388.14,388.14,0,0,0-41.18-17.91c-4.79-1.76-9.69-3.44-14.74-5.07-8.45-2.72-19.27-6.19-32-9.58h0l-3.24-.84A371.81,371.81,0,0,0,408,298.94c-33.63-4.47-73.26-4.59-115,7.06a256.58,256.58,0,0,0-29.66,10.26A261.13,261.13,0,0,0,200,353.74,285.74,285.74,0,0,0,166,385.94h0c-26.59,29.54-42.74,59.07-52.06,76.15C66.73,548.37,68.58,629.6,70.14,673.58c0,.74,0,1.47.09,2.2h0c4.43,110.49,47.21,189.27,74.66,238.44,20.28,36.34,60.89,107.28,134.8,166,0,0,.06.07.09.07a431.07,431.07,0,0,0,56.54,38.1c10.45,5.87,20.87,11.7,31.47,17,6.54,3.25,13.13,6.31,19.84,9,23.45,9.57,48.25,15.25,76.33,12.26,33-3.52,70.59-19.07,94.82-30.64,2-1,4-1.9,5.8-2.8,12.12-6,19.71-10.32,19.71-10.32,4.43,4,9.65,8.46,15.63,13.06l.17.12a231.62,231.62,0,0,0,34.19,21.86h0a212.84,212.84,0,0,0,22,9.92,201.6,201.6,0,0,0,33.73,9.72c67.08,13.12,125.33-11.27,170.85-38.22,15.74-9.32,29.94-18.93,42.47-27.41a468.92,468.92,0,0,0,116-112.65h0c27.82-38.18,44.39-72.27,53.55-91.52C1129.26,779.08,1129.41,667.59,1122.27,600.89Zm-528.2,488.76c-4.67-3.71-8.84-7.28-12.48-10.58a470,470,0,0,1-48.06,23.2c-4.46-3.57-8.44-7-11.94-10.16a466.64,466.64,0,0,1-69.38,31.38h0c-1.94.09-3.86.13-5.76.13-30.65-5.92-58-21-85.4-36.43C250.33,1024.84,194.6,927.73,169.6,883,142,833.48,98.79,754,94.84,642.32c-.78-22-1.64-53.42,3.64-90.12h0v-.05a352.79,352.79,0,0,1,31-77C147.05,443,188.75,366.7,279,329.29c1.54-.64,3.09-1.27,4.65-1.85,48.33-6.7,92.06.6,124.35,8.9,14.15,3.64,26.08,7.48,35.25,10.43,5,1.61,10,3.31,14.75,5.06a390.17,390.17,0,0,1,98.29,53.28,169.36,169.36,0,0,1,21.88-23.7q5.75-5.13,12-9.79c10.07,6.31,18.78,12.4,26.1,17.84a167.74,167.74,0,0,1,21.88-23.71c16.91-15.11,37.4-27.09,60.28-36h0c114.19-17.26,256.19,24.15,326.41,121a218.49,218.49,0,0,1,18.39,30.07c6.46,25,10.17,52,14.4,82.64,8.77,63.64,14,184.31-47.4,313.59-18,37.92-64.81,133.31-169.56,204.2-26.71,18.07-61,41.28-101.34,55.71h0c-6.38.46-12.87.63-19.46.46a198,198,0,0,1-32.48-3.59c-40.9-8.08-72.29-27.46-93.3-44.16Z" transform="translate(0 0)"/><path class="cls-1" d="M606.08,367.28c0-55.67,4.34-108.06,12-153.89C635.26,110.7,669.14,40.92,708.16,40.92" transform="translate(0 0)"/><path class="cls-2" d="M92.87,487.05" transform="translate(0 0)"/><path class="cls-1" d="M546.07,173.73" transform="translate(0 0)"/><path class="cls-1" d="M546.07,1192" transform="translate(0 0)"/><path class="cls-1" d="M1060.22,571.19c-4.55-32.94-8.49-61.62-15.9-88.26-1.6-5.77-3.37-11.47-5.34-17.06a.17.17,0,0,0,0-.1,218.32,218.32,0,0,0-29.77-56.84c-27.72-38.2-66.62-67.78-110.58-88.53a368.29,368.29,0,0,0-51.19-19.58c-45.63-13.73-93.88-19-139.08-15.68h0a317.07,317.07,0,0,0-50.26,7.62h0a269.47,269.47,0,0,0-26.56,7.69c-2.3.81-4.59,1.62-6.84,2.49q-8.73,3.31-17,7.23c-1.32.63-2.64,1.27-3.93,1.92q-8,4-15.46,8.53-5.73,3.51-11.11,7.36a164.84,164.84,0,0,0-13.84,11c-.27.22-.53.46-.79.69-2.8,2.49-5.38,5-7.72,7.33-1.12,1.15-2.2,2.28-3.22,3.36a163.49,163.49,0,0,0-10.94,13,392.17,392.17,0,0,0-72.09-42.53c-8.25-3.74-17-7.36-26.2-10.74-4.77-1.75-9.69-3.45-14.73-5.06-5.57-1.79-12.15-3.91-19.64-6.1q-7.26-2.19-15.63-4.33c-26.85-6.91-61.63-13.12-100.39-11.15h0a269.68,269.68,0,0,0-48.49,6.82q-5.19,1.2-10.43,2.68a256.43,256.43,0,0,0-29.65,10.26C113.2,340.62,71.51,416.91,53.93,449.06,6.78,535.35,8.62,616.58,10.17,660.56A456.89,456.89,0,0,0,32.46,786.28c.1.31.23.61.32.92,4.69,14.43,9.87,28,15.25,40.58,12.46,29.32,25.89,53.74,36.89,73.44,25,44.74,80.73,141.85,191.45,204.21,31.09,17.51,62,34.5,97.82,38.29,4.42.47,8.91.74,13.48.78a141.21,141.21,0,0,0,16.32-.79c21.29-2.26,44.46-9.53,64.73-17.5h.08c7.26-2.85,14.05-5.79,20.33-8.62h0c20.81-9.38,35.16-17.61,35.16-17.61,1.5,1.35,3.09,2.76,4.77,4.19q5,4.27,10.9,8.88c5.6,4.31,11.89,8.76,18.83,13.09a222.91,222.91,0,0,0,19.81,11.06A205.3,205.3,0,0,0,630,1154.67q5.88,1.15,11.67,1.93,7.39,1,14.6,1.39c35.67,2.07,68.46-5.83,97.77-17.89,6.26-2.57,12.36-5.33,18.28-8.21h0c27.39-13.34,51.23-29.49,71-42.84,104.76-70.88,151.55-166.27,169.57-204.19C1074.26,755.51,1069,634.85,1060.22,571.19ZM585.39,1133.73a214.11,214.11,0,0,1-20.9-10.42c12.12-6,19.71-10.32,19.71-10.32,4.43,4,9.65,8.46,15.63,13.06l.17.12a247.22,247.22,0,0,0,25.58,20.28A202.37,202.37,0,0,1,585.39,1133.73ZM1010.22,877c-18,37.92-64.81,133.31-169.57,204.2-26.7,18.07-61,41.28-101.34,55.71h0c-6.37.46-12.87.63-19.45.46a195.81,195.81,0,0,1-32.48-3.59c-40.88-8-72.26-27.41-93.27-44.11-4.67-3.71-8.84-7.28-12.48-10.58a472.24,472.24,0,0,1-48.07,23.2c-4.45-3.57-8.43-7-11.93-10.16a466.64,466.64,0,0,1-69.38,31.38h0c-1.94.09-3.86.13-5.76.13-30.65-5.92-58-21-85.4-36.43C250.37,1024.83,194.6,927.73,169.66,883,142,833.47,98.85,754,94.9,642.31c-.78-22-1.64-53.42,3.64-90.12h0v-.05a351.59,351.59,0,0,1,31-77C147.11,443,188.81,366.69,279,329.28c1.54-.64,3.09-1.27,4.64-1.85,48.33-6.7,92.07.6,124.35,8.9,14.15,3.64,26.09,7.48,35.26,10.43,5,1.61,10,3.31,14.74,5.06a390.54,390.54,0,0,1,98.3,53.28,168.81,168.81,0,0,1,21.88-23.7q5.73-5.13,12-9.79c10.07,6.31,18.78,12.4,26.1,17.84a167.15,167.15,0,0,1,21.88-23.71c16.91-15.11,37.4-27.09,60.28-36h0c114.18-17.26,256.16,24.15,326.39,120.94a221.07,221.07,0,0,1,18.39,30.07c6.46,25,10.17,52,14.4,82.64,8.74,63.63,14,184.3-47.43,313.58Z" transform="translate(0 0)"/><path class="cls-1" d="M546.07,354.23c0-55.66,4.35-108,12-153.88C575.26,97.66,609.13,27.87,648.15,27.87" transform="translate(0 0)"/><path class="cls-1" d="M756.65,629.78" transform="translate(0 0)"/><path class="cls-1" d="M603.47,152.86" transform="translate(0 0)"/><path class="cls-1" d="M603.47,1171.14" transform="translate(0 0)"/><path class="cls-1" d="M533.53,1102.27c-1.49.62-3,1.25-4.57,1.86A333.75,333.75,0,0,1,489,1117.55h0a193.65,193.65,0,0,1-27.75,5.25c-3,.33-6.07.55-9,.67a466.64,466.64,0,0,0,69.38-31.38C525.09,1095.28,529.07,1098.73,533.53,1102.27Z" transform="translate(0 0)"/><path class="cls-1" d="M1070.21,863.93c-10.18,21.42-29.53,61.17-63.33,104.49a465,465,0,0,1-106.23,99.7c-32.47,22-76.17,51.55-128.35,63.71h0a212,212,0,0,1-32.95,5c40.36-14.43,74.64-37.64,101.34-55.71,104.76-70.89,151.54-166.28,169.57-204.2,61.43-129.28,56.17-249.95,47.4-313.59-4.23-30.66-7.94-57.6-14.4-82.64a218.49,218.49,0,0,0-18.39-30.07c-70.23-96.79-212.21-138.2-326.39-120.94h0c-22.88,8.91-43.37,20.89-60.28,36a168.84,168.84,0,0,0-21.88,23.71c-7.32-5.44-16-11.53-26.1-17.84q-6.29,4.67-12,9.79A169.36,169.36,0,0,0,556.34,405,390.23,390.23,0,0,0,458,351.76c-4.79-1.75-9.69-3.45-14.74-5.06-9.17-3-21.11-6.79-35.26-10.43-32.28-8.3-76-15.6-124.35-8.9-1.55.58-3.1,1.21-4.64,1.85-90.23,37.41-131.93,113.7-149.5,145.86a352.29,352.29,0,0,0-31,77h0c-5.28,36.7-4.42,68.08-3.64,90.12,4,111.66,47.13,191.16,74.76,240.67,25,44.73,80.71,141.85,191.43,204.2,27.44,15.46,54.75,30.51,85.4,36.43-42.34,0-77.45-19.18-112.79-39.08C223,1022.06,167.24,925,142.27,880.21c-9.91-17.77-21.83-39.38-33.22-65v-.05C92.24,777.39,76.59,731,70.23,675.65h0q-2-17.46-2.71-36.11c-1.54-44-3.4-125.21,43.76-211.5.74-1.37,1.53-2.8,2.36-4.32h0c17.52-31.86,55-96,129.82-133.59q8.34-4.2,17.3-7.93,7.58-3.15,15.06-5.71c5-1.71,9.76-3.2,14.6-4.55,42.65-11.93,83.15-11.52,117.27-6.77h0a378.74,378.74,0,0,1,42.05,8.42c14.15,3.64,26.09,7.48,35.27,10.42q7.56,2.43,14.73,5.07a387.25,387.25,0,0,1,44.45,19.58l2.85,1.49c6.18,3.27,12,6.57,17.5,9.85q2.82,1.68,5.52,3.34c2.45,1.52,4.81,3,7.11,4.52,7.88,5.11,14.86,10,20.87,14.49,2-2.56,4.84-6.22,8.65-10.47h0a164.41,164.41,0,0,1,13.2-13.2c1.28-1.14,2.57-2.26,3.89-3.37,2.41-2,4.89-4,7.43-5.88A193.69,193.69,0,0,1,658,292.66h0a234.09,234.09,0,0,1,33.61-14.14h0c45.09-15.07,98.21-19,151.18-12,87,11.48,173.61,52.34,223.71,121.39,17.52,24.17,28,48.2,35.21,74.23h0c7.35,26.55,11.3,55.16,15.82,88,2,14.21,3.74,31.23,4.65,50.57C1125.43,668.23,1118,763.44,1070.21,863.93Z" transform="translate(0 0)"/><path class="cls-1" d="M603.47,333.36c0-55.66,4.35-108,12-153.88C632.66,76.78,666.53,7,705.55,7" transform="translate(0 0)"/><path class="cls-2" d="M90.26,453.14" transform="translate(0 0)"/><path class="cls-1" d="M561.72,215.44" transform="translate(0 0)"/><path class="cls-1" d="M561.72,1233.73" transform="translate(0 0)"/><path class="cls-1" d="M623.5,351.81c-.47.22-1,.44-1.41.67q-8.25,4-16,8.55c-4.85,2.88-9.54,5.94-14,9.19l-1.91,1.38c10.07,6.31,18.78,12.4,26.1,17.84a167.74,167.74,0,0,1,21.88-23.71c16.91-15.11,37.4-27.09,60.28-36C671.46,333.8,646.06,341.15,623.5,351.81Zm452.38,261.12c-7-50.75-12.61-91.4-31.56-130l-1.1-2.19c6.46,25,10.17,52,14.4,82.64,8.77,63.64,14,184.31-47.4,313.59-18,37.92-64.81,133.31-169.57,204.2-26.7,18.07-61,41.28-101.34,55.71h0c-6.38.46-12.87.63-19.46.46a196.88,196.88,0,0,1-32.48-3.59c-40.87-8-72.26-27.41-93.27-44.11-4.67-3.71-8.84-7.28-12.48-10.58a470,470,0,0,1-48.06,23.2c-4.46-3.57-8.44-7-11.94-10.16a465.62,465.62,0,0,1-69.38,31.38h0c-1.94.09-3.86.13-5.76.13-30.65-5.92-58-21-85.4-36.43C250.36,1024.83,194.6,927.73,169.65,883,142,833.47,98.84,754,94.9,642.31c-.78-22-1.65-53.42,3.64-90.12h0v-.05a351.59,351.59,0,0,1,31-77C147.11,443,188.81,366.69,279,329.28c1.54-.64,3.09-1.27,4.64-1.85a262.55,262.55,0,0,0-35,7.25A258.49,258.49,0,0,0,219,344.94q-9.87,4.1-19,8.78c-5.69,2.9-11.15,6-16.41,9.16a280.4,280.4,0,0,0-70,61h0c-21.92,26.34-35.73,51.63-44.11,66.93C22.34,577.1,24.21,658.33,25.75,702.31a454.9,454.9,0,0,0,20.17,119v.08c.66,2.16,1.31,4.29,2,6.4,15.74,48.53,36.7,86.8,52.54,115.18,25,44.74,80.71,141.87,191.44,204.21,39.37,22.17,78.49,43.53,127.62,38.29,19.63-2.09,40.88-8.43,60-15.66-39.92,4.24-73.21-9-105.4-26.08,4.42.47,8.91.74,13.48.78,23.45,9.57,48.25,15.25,76.33,12.26,33-3.52,70.59-19.07,94.82-30.64a222.91,222.91,0,0,0,19.81,11.06A204.63,204.63,0,0,0,630,1154.66q5.88,1.15,11.67,1.93a208.69,208.69,0,0,0,64,24.16,197.25,197.25,0,0,0,61.14,2.26c36.39-14.5,67.52-35.56,92.17-52.24l1.87-1.29a458.75,458.75,0,0,0,74.5-63.69h0a499.8,499.8,0,0,0,71.57-97.35c9.71-17.1,16.71-31.6,21.59-41.88C1089.92,797.26,1084.65,676.59,1075.88,612.93Zm-490.49,520.8a214.11,214.11,0,0,1-20.9-10.42c12.12-6,19.71-10.32,19.71-10.32,4.43,4,9.65,8.46,15.63,13.06l.17.12a247.22,247.22,0,0,0,25.58,20.28A202.37,202.37,0,0,1,585.39,1133.73Z" transform="translate(0 0)"/><path class="cls-1" d="M561.72,396c0-55.67,4.35-108.06,12-153.89C590.91,139.4,624.79,69.62,663.81,69.62" transform="translate(0 0)"/><path class="cls-1" d="M621.73,199.82" transform="translate(0 0)"/><path class="cls-1" d="M621.73,1218.1" transform="translate(0 0)"/><path class="cls-1" d="M578.5,1137.16c-8.06,3.93-17.94,8.49-28.85,12.95-3.6-2.95-6.87-5.78-9.8-8.43a470.8,470.8,0,0,1-60.39,28.1c-39.91,4.24-73.2-9-105.4-26.08,4.42.47,8.91.74,13.48.78,23.45,9.57,48.25,15.25,76.33,12.26,33-3.52,70.59-19.07,94.82-30.64A222.91,222.91,0,0,0,578.5,1137.16Z" transform="translate(0 0)"/><path class="cls-1" d="M549.65,1150.11c-21.48,8.79-46.93,17.19-70.14,19.67h-.05a470.8,470.8,0,0,0,60.39-28.1C542.78,1144.33,546.05,1147.16,549.65,1150.11Z" transform="translate(0 0)"/><path class="cls-1" d="M562.49,355.8c-3.54-1.84-7.18-3.67-10.94-5.46-1.79-.85-3.61-1.71-5.45-2.55-.45-.22-.9-.42-1.34-.62-8.43-3.84-17.37-7.54-26.81-11q-7.17-2.64-14.73-5.07l-5-1.59c-8.24-2.63-18.25-5.72-29.72-8.69l-.53-.14c-39.92-10.28-97.36-19-159.34-1.65a255.63,255.63,0,0,0-25,8.4c48.33-6.7,92.07.6,124.35,8.9,14.15,3.64,26.09,7.48,35.26,10.43,5,1.61,10,3.31,14.74,5.06a390.06,390.06,0,0,1,98.3,53.28,169.36,169.36,0,0,1,21.88-23.7q5.75-5.13,12-9.79C581.86,366.44,572.6,361.05,562.49,355.8Zm573.4,241.49c-7.31-52.94-13.1-94.89-34.09-135h0a218.32,218.32,0,0,0-17-27.27,259.22,259.22,0,0,0-51.51-52.62c-32.16-24.89-70.15-43.41-110.15-55.46h0q-12.18-3.68-24.58-6.54c-69.39-16-142.4-13.15-200.14,9.33,114.18-17.26,256.16,24.15,326.39,120.94a218.49,218.49,0,0,1,18.39,30.07c6.46,25,10.17,52,14.4,82.64,8.77,63.64,14,184.31-47.4,313.59-18,37.92-64.81,133.31-169.57,204.2-26.7,18.07-61,41.28-101.34,55.71h0c-6.38.46-12.87.63-19.46.46a198,198,0,0,1-32.48-3.59c-40.87-8-72.25-27.41-93.27-44.11-4.67-3.71-8.84-7.28-12.48-10.58a470,470,0,0,1-48.06,23.2c-4.46-3.57-8.44-7-11.94-10.16a466.64,466.64,0,0,1-69.38,31.38h0c-1.94.09-3.85.13-5.75.13-30.65-5.92-58-21-85.4-36.43C250.4,1024.83,194.6,927.73,169.69,883c-27.63-49.51-70.81-129-74.76-240.67-.78-22-1.64-53.42,3.64-90.12C83.5,607.74,84.71,656.12,85.8,686.61a456.32,456.32,0,0,0,23.26,128.7v.05c15.62,47,36,84.17,51.48,111.92,18.81,33.7,55.07,97.11,119.15,153,0,0,.06.07.08.07A433.79,433.79,0,0,0,352,1131.49l2.95,1.66c6.39,3.59,12.79,7.14,19.22,10.55,4.42.47,8.91.74,13.48.78,23.45,9.57,48.25,15.25,76.33,12.26,33-3.52,70.59-19.07,94.82-30.64a222.91,222.91,0,0,0,19.81,11.06c2.48-1.21,4.77-2.36,6.89-3.44a214.11,214.11,0,0,1-20.9-10.42c12.12-6,19.71-10.32,19.71-10.32,4.43,4,9.65,8.46,15.63,13.06h0l.16.14a245,245,0,0,0,25.5,20.26h0c4.93,3.39,10.29,6.8,16,10.11a208.69,208.69,0,0,0,64,24.16,197.25,197.25,0,0,0,61.14,2.26c62.77-7.39,114.88-42.66,152.18-67.89,104.75-70.89,151.53-166.29,169.55-204.21a540.65,540.65,0,0,0,45.39-145.43h0a568.21,568.21,0,0,0,2.05-168.15Z" transform="translate(0 0)"/><path class="cls-1" d="M621.73,380.32c0-55.66,4.35-108,12-153.88C650.92,123.74,684.79,54,723.81,54" transform="translate(0 0)"/><path class="cls-2" d="M108.52,500.1" transform="translate(0 0)"/><path class="cls-2" d="M88.69,1177.13" transform="translate(0 0)"/><path class="cls-1" d="M543.46,165.9" transform="translate(0 0)"/><path class="cls-1" d="M543.46,1184.19" transform="translate(0 0)"/><path class="cls-1" d="M599.83,1126c-.3.16-5.68,3.24-14.44,7.68a214.11,214.11,0,0,1-20.9-10.42c12.12-6,19.71-10.32,19.71-10.32C588.6,1117,593.85,1121.44,599.83,1126Z" transform="translate(0 0)"/><path class="cls-1" d="M625.6,1146.44a203,203,0,0,1-40.19-12.71c8.76-4.44,14.14-7.52,14.44-7.68l.17.12A248.47,248.47,0,0,0,625.6,1146.44Z" transform="translate(0 0)"/><path class="cls-1" d="M719.82,1137.35a198,198,0,0,1-32.48-3.59c-40.87-8-72.26-27.41-93.27-44.11,9.3-4.7,14.91-7.92,14.91-7.94,20,18.08,55.76,44.94,105.75,54.71Q717.28,1136.92,719.82,1137.35Z" transform="translate(0 0)"/><path class="cls-1" d="M719.82,1137.35a198,198,0,0,1-32.48-3.59c-40.87-8-72.26-27.41-93.27-44.11-4.67-3.71-8.84-7.28-12.48-10.58a470,470,0,0,1-48.06,23.2c3.6,2.88,7.5,5.83,11.71,8.81,5.84,4.11,12.25,8.25,19.25,12.22,12.12-6,19.71-10.32,19.71-10.32,4.43,4,9.65,8.46,15.63,13.06l.17.12a247.22,247.22,0,0,0,25.58,20.28h0l1.74.35c2.31.45,4.59.86,6.86,1.22h0c35.66,5.67,68.73.89,98.63-8.94h0c2.16-.7,4.3-1.44,6.42-2.2A190.5,190.5,0,0,1,719.82,1137.35ZM1039,465.87a.17.17,0,0,0,0-.1,219.55,219.55,0,0,0-32.38-64.67C984.75,371,956,346.23,923.21,326.94h0a338.18,338.18,0,0,0-36.94-18.8h0c-47.46-20.66-100.11-31.34-150.62-31.79h0a357.15,357.15,0,0,0-43.87,2.27h0a297.43,297.43,0,0,0-59.85,13c-2.17.71-4.32,1.47-6.45,2.23-5.87,2.13-11.61,4.47-17.16,7-1.45.65-2.87,1.33-4.28,2a200.53,200.53,0,0,0-23.57,13.28q-5.31,3.48-10.33,7.31c-2.07,1.57-4.09,3.19-6.08,4.85-1.37,1.15-2.73,2.32-4.06,3.51-4.54,4.05-8.46,8-11.77,11.6-.69.75-1.35,1.49-2,2.21-.47.52-.92,1.05-1.35,1.54-2.9,3.35-5.16,6.22-6.77,8.36a390.32,390.32,0,0,0-39.78-26,386,386,0,0,0-42.66-21h0q-7.67-3.21-15.85-6.22-7.19-2.64-14.74-5.07c-9.17-3-21.11-6.78-35.27-10.43a352.27,352.27,0,0,0-74.45-11.31h0a288.93,288.93,0,0,0-39.47,1.17,264.37,264.37,0,0,0-45.4,8.49,256.43,256.43,0,0,0-29.65,10.26C110.6,332.81,68.9,409.1,51.32,441.26,4.17,527.54,6,608.77,7.58,652.75A457.23,457.23,0,0,0,32.47,786.3c.1.31.22.61.32.92,4.17,12,8.62,23.4,13.21,34.1a.11.11,0,0,1,0,.08c12.29,28.68,25.49,52.65,36.3,72,25,44.73,80.73,141.86,191.44,204.2,26.18,14.74,52.25,29.12,81.22,35.57,4.22.93,8.51,1.71,12.86,2.29a141.12,141.12,0,0,0,33.56.43c15.83-1.69,32.71-6.14,48.67-11.61h0l2.23-.77c-1.94.09-3.86.13-5.76.13-30.65-5.92-58-21-85.4-36.43C250.4,1024.86,194.6,927.73,169.69,883,142.06,833.5,98.88,754,94.93,642.34c-.78-22-1.64-53.42,3.64-90.12h0v-.05a352.09,352.09,0,0,1,31-77c17.57-32.16,59.27-108.45,149.5-145.86,1.54-.64,3.09-1.27,4.64-1.85,48.33-6.7,92.07.6,124.35,8.9,14.15,3.64,26.09,7.48,35.26,10.43,5.05,1.61,10,3.31,14.74,5.06a390.06,390.06,0,0,1,98.3,53.28,169.36,169.36,0,0,1,21.88-23.7q5.75-5.13,12-9.79C600.31,378,609,384,616.34,389.48a167.74,167.74,0,0,1,21.88-23.71c16.91-15.11,37.4-27.09,60.28-36h0c114.18-17.26,256.16,24.15,326.39,120.94a218.49,218.49,0,0,1,18.39,30.07c-1.3-5-2.75-10-4.3-14.91Z" transform="translate(0 0)"/><path class="cls-1" d="M1010.22,877c-18,37.92-64.81,133.31-169.57,204.2-26.7,18.07-61,41.28-101.34,55.71h0c-6.37.46-12.87.63-19.45.46q-2.55-.43-5.09-.93c-50-9.77-85.75-36.63-105.75-54.71,0,0-5.61,3.24-14.91,7.94-4.67-3.71-8.84-7.28-12.48-10.58a472.24,472.24,0,0,1-48.07,23.2c-4.45-3.57-8.43-7-11.93-10.16a466.64,466.64,0,0,1-69.38,31.38h0c-1.94.09-3.86.13-5.76.13-30.65-5.92-58-21-85.4-36.43C250.37,1024.83,194.6,927.73,169.66,883,142,833.47,98.85,754,94.9,642.31c-.78-22-1.64-53.42,3.64-90.12h0v-.05a351.59,351.59,0,0,1,31-77C147.11,443,188.81,366.69,279,329.28c1.54-.64,3.09-1.27,4.64-1.85,48.33-6.7,92.07.6,124.35,8.9,14.15,3.64,26.09,7.48,35.26,10.43,5,1.61,10,3.31,14.74,5.06a390.54,390.54,0,0,1,98.3,53.28,168.81,168.81,0,0,1,21.88-23.7q5.73-5.13,12-9.79c10.07,6.31,18.78,12.4,26.1,17.84a167.15,167.15,0,0,1,21.88-23.71c16.91-15.11,37.4-27.09,60.28-36h0c114.18-17.26,256.16,24.15,326.39,120.94a221.07,221.07,0,0,1,18.39,30.07c6.46,25,10.17,52,14.4,82.64C1066.39,627,1071.65,747.73,1010.22,877Z" transform="translate(0 0)"/><path class="cls-1" d="M543.46,346.44c0-55.67,4.35-108.06,12-153.89C572.65,89.86,606.52,20.08,645.54,20.08" transform="translate(0 0)"/></svg>